<?xml version="1.0" encoding="UTF-8" standalone="no"?>
<!-- Created with Inkscape (http://www.inkscape.org/) -->

<svg
   xmlns:dc="http://purl.org/dc/elements/1.1/"
   xmlns:cc="http://creativecommons.org/ns#"
   xmlns:rdf="http://www.w3.org/1999/02/22-rdf-syntax-ns#"
   xmlns:svg="http://www.w3.org/2000/svg"
   xmlns="http://www.w3.org/2000/svg"
   xmlns:xlink="http://www.w3.org/1999/xlink"
   xmlns:sodipodi="http://sodipodi.sourceforge.net/DTD/sodipodi-0.dtd"
   xmlns:inkscape="http://www.inkscape.org/namespaces/inkscape"
   width="210mm"
   height="297mm"
   viewBox="0 0 744.09448819 1052.3622047"
   id="svg2"
   version="1.1"
   inkscape:version="0.91 r13725"
   sodipodi:docname="environment.svg">
  <defs
     id="defs4">
    <linearGradient
       inkscape:collect="always"
       id="linearGradient4449">
      <stop
         style="stop-color:#ff7777;stop-opacity:1"
         offset="0"
         id="stop4451" />
      <stop
         id="stop4457"
         offset="0.06876785"
         style="stop-color:#ff5656;stop-opacity:1" />
      <stop
         style="stop-color:#aa0000;stop-opacity:1"
         offset="1"
         id="stop4453" />
    </linearGradient>
    <linearGradient
       inkscape:collect="always"
       xlink:href="#linearGradient4449"
       id="linearGradient4455"
       x1="319.28571"
       y1="574.86222"
       x2="351.62906"
       y2="574.86224"
       gradientUnits="userSpaceOnUse"
       gradientTransform="translate(-45.709403,1.767767)" />
    <linearGradient
       inkscape:collect="always"
       xlink:href="#linearGradient4449"
       id="linearGradient4455-1"
       x1="319.28571"
       y1="574.86224"
       x2="351.62906"
       y2="574.86224"
       gradientUnits="userSpaceOnUse"
       gradientTransform="translate(-47.878791,-2.1862021)" />
  </defs>
  <sodipodi:namedview
     id="base"
     pagecolor="#ffffff"
     bordercolor="#666666"
     borderopacity="1.0"
     inkscape:pageopacity="0.0"
     inkscape:pageshadow="2"
     inkscape:zoom="7.9195959"
     inkscape:cx="306.01782"
     inkscape:cy="507.47417"
     inkscape:document-units="px"
     inkscape:current-layer="layer1"
     showgrid="false"
     showguides="false"
     inkscape:window-width="1280"
     inkscape:window-height="748"
     inkscape:window-x="-8"
     inkscape:window-y="-8"
     inkscape:window-maximized="1" />
  <metadata
     id="metadata7">
    <rdf:RDF>
      <cc:Work
         rdf:about="">
        <dc:format>image/svg+xml</dc:format>
        <dc:type
           rdf:resource="http://purl.org/dc/dcmitype/StillImage" />
        <dc:title></dc:title>
      </cc:Work>
    </rdf:RDF>
  </metadata>
  <g
     inkscape:label="Layer 1"
     inkscape:groupmode="layer"
     id="layer1">
    <g
       id="g4146"
       inkscape:export-xdpi="96.734322"
       inkscape:export-ydpi="96.734322">
      <path
         inkscape:connector-curvature="0"
         id="path4136"
         d="m 81.428573,210.93363 -35.000001,-10 -12.142857,-35.71429 17.857142,-92.142851 47.142856,-46.428571 14.999997,5 17.14286,65.714285 6.42857,83.571427 -25,30.71428 z"
         style="fill:#916f6f;fill-rule:evenodd;stroke:#000000;stroke-width:1px;stroke-linecap:butt;stroke-linejoin:miter;stroke-opacity:0.19607843" />
      <path
         inkscape:connector-curvature="0"
         id="path4138"
         d="m 35.357143,165.57649 20,24.28571 26.428571,5.35715 31.071426,-5.71429 13.21429,-25.71429 7.14286,-39.28571 3.92857,56.42857 -24.28572,30 -31.785711,0 -35,-10.35714 z"
         style="fill:#726072;fill-rule:evenodd;stroke:none;stroke-width:1px;stroke-linecap:butt;stroke-linejoin:miter;stroke-opacity:1;fill-opacity:1" />
      <path
         sodipodi:nodetypes="ccccccccccc"
         inkscape:connector-curvature="0"
         id="path4140"
         d="M 38.214286,146.64791 60,78.076489 83.704407,54.979884 106.44688,51.666706 93.12286,46.544687 l 8.66285,-9.182484 13.57144,-1.071428 -1.42858,-4.642858 -14.285713,-5.357143 -47.678571,47.142858 z"
         style="fill:#af9d8e;fill-opacity:1;fill-rule:evenodd;stroke:none;stroke-width:1px;stroke-linecap:butt;stroke-linejoin:miter;stroke-opacity:1" />
      <path
         inkscape:connector-curvature="0"
         id="path4142"
         d="M 45.714286,106.64792 53.928572,73.790774 100,28.076488 104.28571,27.897917 99.464286,26.290774 51.607143,73.25506 Z"
         style="fill:#dcd7a9;fill-rule:evenodd;stroke:none;stroke-width:1px;stroke-linecap:butt;stroke-linejoin:miter;stroke-opacity:1;fill-opacity:1" />
      <path
         inkscape:connector-curvature="0"
         id="path4144"
         d="m 70.45814,171.00411 25.001276,3.03046 14.899754,-5.05077 15.15228,-38.63833 -1.26269,-34.345189 -5.05076,31.062189 -15.15229,32.82996 -16.920053,7.32361 z"
         style="fill:#726072;fill-rule:evenodd;stroke:none;stroke-width:1px;stroke-linecap:butt;stroke-linejoin:miter;stroke-opacity:1;fill-opacity:1" />
    </g>
    <g
       id="g4161"
       inkscape:export-xdpi="83.598946"
       inkscape:export-ydpi="83.598946">
      <path
         sodipodi:nodetypes="cccccccccc"
         inkscape:connector-curvature="0"
         id="path4153"
         d="m 191.54946,208.15659 -25.84829,-17.43257 -7.21347,-23.44379 7.8146,-20.43819 30.65726,-9.61796 69.12914,12.02245 20.43818,19.23594 -15.6292,29.45503 -46.28646,9.01684 z"
         style="fill:#916f6f;fill-opacity:1;fill-rule:evenodd;stroke:#000000;stroke-width:1;stroke-linecap:butt;stroke-linejoin:miter;stroke-miterlimit:4;stroke-dasharray:none;stroke-opacity:0.19607843" />
      <path
         sodipodi:nodetypes="cccccccccc"
         inkscape:connector-curvature="0"
         id="path4155"
         d="m 159.28571,167.00506 15,-14.28571 23.21429,-7.5 42.5,12.85714 20,-4.28572 16.51786,5.26786 -10.44643,-9.55357 -69.28572,-12.14286 -30.35714,9.64286 z"
         style="fill:#af9d8e;fill-opacity:1;fill-rule:evenodd;stroke:none;stroke-width:1px;stroke-linecap:butt;stroke-linejoin:miter;stroke-opacity:1" />
      <path
         inkscape:connector-curvature="0"
         id="path4157"
         d="m 161.78571,177.00506 26.07143,17.5 21.78572,3.21429 22.85714,-4.64286 8.57143,3.57143 22.5,-11.78572 13.57143,-17.85714 8.21428,1.42857 -15,29.28572 -45.71428,8.92857 -32.85715,1.78571 -26.07142,-18.21428 z"
         style="fill:#726072;fill-rule:evenodd;stroke:none;stroke-width:1px;stroke-linecap:butt;stroke-linejoin:miter;stroke-opacity:1;fill-opacity:1" />
      <path
         sodipodi:nodetypes="cccccccc"
         inkscape:connector-curvature="0"
         id="path4159"
         d="m 165.90223,146.98235 31.83513,-7.29297 36.87057,6.56599 3.28299,3.03046 4.29315,-1.51523 24.1697,1.55855 -69.6572,-12.18047 z"
         style="fill:#dcd7a9;fill-opacity:1;fill-rule:evenodd;stroke:none;stroke-width:1px;stroke-linecap:butt;stroke-linejoin:miter;stroke-opacity:1" />
    </g>
    <g
       inkscape:export-ydpi="107.34446"
       inkscape:export-xdpi="107.34446"
       transform="translate(-10.101525,-1.0101525)"
       id="g4190">
      <path
         sodipodi:nodetypes="cccccccccccccccccc"
         inkscape:connector-curvature="0"
         id="path4167"
         d="M 171.42857,35.219347 155,48.790775 l 5,22.857143 72.14286,8.571429 90,-7.857144 69.28571,-2.857142 30.71428,-3.571429 29.28572,-0.714285 35,-8.571429 2.85714,-12.857143 -6.42857,-11.428571 -46.42857,-11.428572 -75,5 L 340,19.505061 272.85714,30.933632 235,26.647918 192.85714,35.933632 Z"
         style="fill:#916f6f;fill-opacity:1;fill-rule:evenodd;stroke:#000000;stroke-width:1px;stroke-linecap:butt;stroke-linejoin:miter;stroke-opacity:0.19607843" />
      <path
         sodipodi:nodetypes="cccccccccccccccccccc"
         inkscape:connector-curvature="0"
         id="path4169"
         d="m 155.56349,50.290879 10.10153,13.63706 65.15484,5.555839 40.4061,-14.647212 13.13198,10.101525 87.3782,-7.576144 13.13198,6.060915 29.29442,-8.586296 27.27412,-5.555839 8.5863,9.596449 27.27412,-7.576144 11.49048,-8.081221 -2.39911,13.131983 -34.85026,8.965104 -31.81981,0.631346 -33.84011,4.04061 -90.40865,4.545686 -63.13453,6.565992 -71.72084,-9.091373 z"
         style="fill:#726072;fill-opacity:1;fill-rule:evenodd;stroke:none;stroke-width:1px;stroke-linecap:butt;stroke-linejoin:miter;stroke-opacity:1" />
      <path
         sodipodi:nodetypes="ccccc"
         inkscape:connector-curvature="0"
         id="path4171"
         d="M 271.73103,54.836566 307.82704,51.59538 367.19045,36.65382 306.07623,57.361947 Z"
         style="fill:#726072;fill-opacity:1;fill-rule:evenodd;stroke:none;stroke-width:1px;stroke-linecap:butt;stroke-linejoin:miter;stroke-opacity:1" />
      <path
         sodipodi:nodetypes="cccccc"
         inkscape:connector-curvature="0"
         id="path4173"
         d="m 394.46457,40.69443 40.6407,1.377808 19.46338,-8.953952 -12.62691,15.152288 -16.23423,-1.565992 z"
         style="fill:#726072;fill-opacity:1;fill-rule:evenodd;stroke:none;stroke-width:1px;stroke-linecap:butt;stroke-linejoin:miter;stroke-opacity:1" />
      <path
         sodipodi:nodetypes="cccccccccccccccccc"
         inkscape:connector-curvature="0"
         id="path4175"
         d="m 155.05842,48.77565 20.20305,-7.071067 20.20305,0.505076 40.4061,-7.071068 62.12438,5.555839 -7.07107,-6.565992 50.00255,-8.08122 32.32489,7.576144 44.44671,-6.565991 33.63616,-2.377448 -14.97897,-4.071248 -74.634,5.198696 -21.3305,-6.535354 -67.41499,11.795326 -37.61024,-5.020125 -42.61581,9.848988 -22.03395,-0.757615 z"
         style="fill:#af9d8e;fill-opacity:1;fill-rule:evenodd;stroke:none;stroke-width:1px;stroke-linecap:butt;stroke-linejoin:miter;stroke-opacity:1" />
      <path
         inkscape:connector-curvature="0"
         id="path4177"
         d="m 162.67857,42.362203 10.35714,-5.178572 21.42858,0.714286 41.60714,-9.464286 36.78571,2.321429 -37.5,-4.821429 -42.67857,9.821429 -21.60714,-0.714286 z"
         style="fill:#dcd7a9;fill-opacity:1;fill-rule:evenodd;stroke:none;stroke-width:1px;stroke-linecap:butt;stroke-linejoin:miter;stroke-opacity:1" />
      <path
         sodipodi:nodetypes="ccccccc"
         inkscape:connector-curvature="0"
         id="path4179"
         d="m 320.21836,22.511684 20.45559,-0.757615 26.76904,5.808377 69.01688,-7.01242 -74.82526,4.992115 -21.92749,-6.418058 z"
         style="fill:#dcd7a9;fill-opacity:1;fill-rule:evenodd;stroke:none;stroke-width:1px;stroke-linecap:butt;stroke-linejoin:miter;stroke-opacity:1" />
    </g>
    <g
       id="g4228"
       transform="translate(-14.142136,12.121831)"
       inkscape:export-xdpi="124.08811"
       inkscape:export-ydpi="124.08811">
      <path
         style="fill:#916f6f;fill-opacity:1;fill-rule:evenodd;stroke:#000000;stroke-width:1px;stroke-linecap:butt;stroke-linejoin:miter;stroke-opacity:0.19607843"
         d="m 329.30973,198.7833 -11.11168,-48.48732 1.01015,-20.20305 23.23351,-23.23351 130.30968,-35.355337 54.54824,-6.060915 67.68022,11.111678 47.47717,29.294424 29.29442,38.3858 8.08122,48.48732 -9.09137,46.46702 -63.63961,49.49747 -131.31983,10.10153 -74.75129,-19.1929 -44.44671,-30.30458 z"
         id="path4199"
         inkscape:connector-curvature="0" />
      <path
         style="fill:#726072;fill-opacity:1;fill-rule:evenodd;stroke:none;stroke-width:1px;stroke-linecap:butt;stroke-linejoin:miter;stroke-opacity:1"
         d="m 318.70313,150.80106 20.20305,41.41625 37.88072,35.86042 -21.2132,-5.05077 15.65736,21.21321 33.84011,17.67767 72.73098,-16.16244 15.65737,12.6269 0.50507,18.18275 71.72084,-4.54569 1.51522,-10.6066 15.65737,-8.5863 20.20305,-25.75889 -0.50508,21.21321 -6.56599,13.13198 14.14214,2.52538 34.85026,-22.72843 19.1929,-26.26397 -2.52538,-34.34518 11.61675,7.07107 -3.03046,-44.95179 10.10153,49.49747 -10.6066,48.9924 -62.62946,47.98225 -131.31983,9.59645 -75.25637,-19.1929 -43.94163,-30.30458 -27.27412,-51.0127 z"
         id="path4201"
         inkscape:connector-curvature="0" />
      <path
         style="fill:#726072;fill-opacity:1;fill-rule:evenodd;stroke:none;stroke-width:1px;stroke-linecap:butt;stroke-linejoin:miter;stroke-opacity:1"
         d="m 530.83516,237.67418 28.28427,10.6066 23.23351,0.50507 30.80965,-11.11167 18.18275,-32.82996 8.08122,-26.26397 -1.51523,-26.76904 -8.08122,-14.14214 -4.04061,12.62691 -4.54568,23.23351 -13.13198,18.68782 -16.16245,17.67767 15.65737,-2.0203 -15.15229,13.13198 -30.30458,9.09137 -47.98224,-4.54568 z"
         id="path4203"
         inkscape:connector-curvature="0"
         sodipodi:nodetypes="ccccccccccccccccc" />
      <path
         style="fill:#726072;fill-opacity:1;fill-rule:evenodd;stroke:none;stroke-width:1px;stroke-linecap:butt;stroke-linejoin:miter;stroke-opacity:1"
         d="m 417.14162,223.31103 31.852,8.19044 27.39356,1.9823 24.33197,-2.68131 24.68742,-6.30607 17.52542,-12.21627 8.19562,-14.6794 -17.70314,14.02866 -35.2664,-0.64295 -13.33746,8.26352 -31.82194,-7.06145 -23.00303,-23.79103 -5.56257,-22.22168 -5.81484,27.72153 8.44383,20.11137 -23.23304,1.52226 z"
         id="path4205"
         inkscape:connector-curvature="0"
         sodipodi:nodetypes="ccccccccccccccccc" />
      <path
         style="fill:#af9d8e;fill-opacity:1;fill-rule:evenodd;stroke:none;stroke-width:1px;stroke-linecap:butt;stroke-linejoin:miter;stroke-opacity:1"
         d="m 319.08193,130.34547 27.90547,-14.89975 42.42641,-9.09137 51.0127,0 42.93148,12.12183 -32.82995,-17.1726 -19.69798,-6.565989 44.44671,-13.131983 24.74874,-0.505076 34.85026,5.555839 7.57615,-3.535534 -2.52538,-8.08122 49.49747,7.576144 38.89087,21.718279 14.64721,1.51523 -47.44653,-29.146491 -68.21593,-11.111678 -55.05331,5.912982 -130.05714,35.481607 z"
         id="path4207"
         inkscape:connector-curvature="0"
         sodipodi:nodetypes="cccccccccccccccccccc" />
      <path
         style="fill:#dcd7a9;fill-opacity:1;fill-rule:evenodd;stroke:none;stroke-width:1px;stroke-linecap:butt;stroke-linejoin:miter;stroke-opacity:1"
         d="M 319.64286,129.68363 344.46429,108.79077 473.57143,73.076488 527.5,65.75506 472.14286,71.469346 342.67857,106.82649 Z"
         id="path4209"
         inkscape:connector-curvature="0" />
      <path
         style="fill:#af9d8e;fill-opacity:1;fill-rule:evenodd;stroke:none;stroke-width:1px;stroke-linecap:butt;stroke-linejoin:miter;stroke-opacity:1"
         d="m 522.75394,116.45587 24.24366,-12.12183 22.72844,-3.03046 28.28427,5.05077 -27.27412,0.50507 -22.72843,3.53554 z"
         id="path4211"
         inkscape:connector-curvature="0" />
    </g>
    <g
       id="g4249"
       inkscape:export-xdpi="117.22766"
       inkscape:export-ydpi="117.22766">
      <path
         inkscape:connector-curvature="0"
         id="path4237"
         d="m 73.741136,265.45337 -42.426407,27.27412 -12.121831,37.37564 4.040611,49.49748 23.233508,48.48732 69.700523,21.21321 92.93404,-20.20306 31.31473,-33.33503 8.08122,-69.70053 -13.13199,-37.37564 -55.55839,-24.24366 z"
         style="fill:#916f6f;fill-rule:evenodd;stroke:#000000;stroke-width:1px;stroke-linecap:butt;stroke-linejoin:miter;stroke-opacity:0.19607843;fill-opacity:1" />
      <path
         inkscape:connector-curvature="0"
         id="path4239"
         d="m 19.642857,331.64792 13.928572,45.35714 23.214285,36.42857 52.142856,15.35715 13.92857,-3.57143 18.92857,2.14285 15,-10.35714 -5.35714,-20 34.64286,13.92857 25.35714,-8.21428 13.92857,-15.35715 -7.85714,-26.42857 14.28571,-9.28571 8.57143,-22.85714 L 240,303.43363 l 7.5,22.5 -7.5,69.64286 -31.07143,33.57143 -93.21428,20 L 46.071429,428.43363 23.214286,379.8622 Z"
         style="fill:#726072;fill-rule:evenodd;stroke:none;stroke-width:1px;stroke-linecap:butt;stroke-linejoin:miter;stroke-opacity:1;fill-opacity:1" />
      <path
         sodipodi:nodetypes="cccccccccccccc"
         inkscape:connector-curvature="0"
         id="path4241"
         d="m 25.253814,312.93054 12.626906,-16.16244 39.901026,-17.67767 26.769044,1.01015 7.57614,-7.07106 61.11423,-1.51523 8.5863,-1.01016 14.14213,13.63706 38.3858,4.04061 -54.04316,-23.73858 -59.09392,-1.51523 -47.446536,2.4641 -43.467198,27.3354 z"
         style="fill:#af9d8e;fill-opacity:1;fill-rule:evenodd;stroke:none;stroke-width:1px;stroke-linecap:butt;stroke-linejoin:miter;stroke-opacity:1" />
      <path
         inkscape:connector-curvature="0"
         id="path4243"
         d="m 30.052038,293.23257 44.446712,-25.25382 48.23478,-2.52538 57.07362,-0.75761 -59.09392,-2.02031 -47.729709,3.03046 z"
         style="fill:#dcd7a9;fill-rule:evenodd;stroke:none;stroke-width:1px;stroke-linecap:butt;stroke-linejoin:miter;stroke-opacity:1;fill-opacity:1" />
      <path
         sodipodi:nodetypes="cccccccccc"
         inkscape:connector-curvature="0"
         id="path4245"
         d="m 134.85537,400.81381 18.68782,-0.50507 30.80965,-15.65737 18.68782,-22.22335 1.01015,-29.7995 -10.6066,24.24366 -15.15229,18.18275 -33.33503,16.16243 -31.8198,2.02031 z"
         style="fill:#726072;fill-opacity:1;fill-rule:evenodd;stroke:none;stroke-width:1px;stroke-linecap:butt;stroke-linejoin:miter;stroke-opacity:1" />
      <path
         inkscape:connector-curvature="0"
         id="path4247"
         d="m 85.35789,294.7478 -22.223356,5.05076 -11.111678,5.05076 -15.657364,17.17259 17.172593,-13.63706 19.192898,-5.05076 28.789347,-3.03046 z"
         style="fill:#af9d8e;fill-rule:evenodd;stroke:none;stroke-width:1px;stroke-linecap:butt;stroke-linejoin:miter;stroke-opacity:1;fill-opacity:1" />
    </g>
    <path
       style="fill:#916f6f;fill-rule:evenodd;stroke:none;stroke-width:1px;stroke-linecap:butt;stroke-linejoin:miter;stroke-opacity:1;fill-opacity:1"
       d="m 264.64286,265.21935 -4.28572,3.57142 -1.78571,5.71429 8.92857,8.92857 10,0.71429 5.71429,-8.57143 -4.64286,-9.28572 z"
       id="path4257"
       inkscape:connector-curvature="0"
       inkscape:export-xdpi="146.08698"
       inkscape:export-ydpi="146.08698" />
    <path
       style="fill:#af9d8e;fill-opacity:1;fill-rule:evenodd;stroke:none;stroke-width:1px;stroke-linecap:butt;stroke-linejoin:miter;stroke-opacity:1"
       d="M 259.10714,274.32649 265,270.39792 l 13.75,-4.10715 -13.92857,-1.07142 -4.46429,3.39285 z"
       id="path4259"
       inkscape:connector-curvature="0"
       sodipodi:nodetypes="cccccc"
       inkscape:export-xdpi="146.08698"
       inkscape:export-ydpi="146.08698" />
    <path
       style="fill:#726072;fill-rule:evenodd;stroke:none;stroke-width:1px;stroke-linecap:butt;stroke-linejoin:miter;stroke-opacity:1;fill-opacity:1"
       d="m 262.67857,278.43363 4.64286,5.17857 10,0.71429 5.89286,-8.75 -3.57143,-7.14286 0.35714,6.42857 -4.82143,4.28572 z"
       id="path4261"
       inkscape:connector-curvature="0"
       inkscape:export-xdpi="146.08698"
       inkscape:export-ydpi="146.08698" />
    <g
       id="g4279"
       transform="translate(-3.6055203e-8,-39.395949)"
       inkscape:export-xdpi="149.79022"
       inkscape:export-ydpi="149.79022">
      <path
         sodipodi:nodetypes="cccccccccccccccccccccccccccccccccccccccccccccc"
         inkscape:connector-curvature="0"
         id="path4263"
         d="M 44.285714,529.50506 57.142857,645.21935 62.857143,742.3622 60,809.50506 l -18.571429,31.42857 -18.571428,10 L 14.285714,872.3622 20,898.07649 l 8.571429,14.28571 4.285714,-8.57142 -5.714286,-12.85715 1.428572,-20 38.571428,-24.28571 11.428572,-24.28572 4.285714,22.85715 -10,22.85714 0,18.57143 L 80,910.93363 l 0,18.57143 7.142857,0 1.428572,-18.57143 -1.428572,-25.71428 7.142857,-17.14286 17.142856,-28.57143 7.14286,-15.71428 17.14286,0 7.14285,8.57142 11.42857,10 7.14286,14.28572 9.28572,9.28571 16.42857,5 18.57143,2.85715 -0.35715,-6.42857 L 190,862.71935 l -14.64286,-7.14286 -4.28571,-17.85714 -9.64286,-22.5 -8.57143,-10 -15.71428,-2.85715 -2.85715,-17.14285 -17.14285,-78.57143 -12.85715,-67.14286 0,-101.42857 -2.85714,-12.85714 -29.999999,-4.28572 z"
         style="fill:#a06742;fill-opacity:1;fill-rule:evenodd;stroke:none;stroke-width:1px;stroke-linecap:butt;stroke-linejoin:miter;stroke-opacity:1" />
      <path
         sodipodi:nodetypes="cccccccccccc"
         inkscape:connector-curvature="0"
         id="path4265"
         d="m 86.999388,929.24986 -2.65165,-16.79378 -2.525382,-26.26397 8.586297,-27.77919 9.310177,-21.9028 10.53573,-4.89163 8.56464,-8.1821 -6.973,15.76917 -13.861403,23.24797 -11.111678,23.2335 2.525381,21.71828 z"
         style="fill:#82573c;fill-opacity:1;fill-rule:evenodd;stroke:none;stroke-width:1px;stroke-linecap:butt;stroke-linejoin:miter;stroke-opacity:1" />
      <path
         inkscape:connector-curvature="0"
         id="path4267"
         d="m 135.71429,801.64792 -10,-15 -17.85715,-87.85714 -4.28571,5 6.42857,69.28571 -13.571428,-83.57143 -5.714286,-90.71428 11.428574,80 4.28571,-12.85715 L 100,641.64792 l -5,-81.42857 5.71429,16.42857 -1.428576,-36.42857 0,-13.57143 4.999996,10 0,102.14286 z"
         style="fill:#82573c;fill-opacity:1;fill-rule:evenodd;stroke:none;stroke-width:1px;stroke-linecap:butt;stroke-linejoin:miter;stroke-opacity:1" />
      <path
         sodipodi:nodetypes="cccccccccccc"
         inkscape:connector-curvature="0"
         id="path4269"
         d="m 153.03811,805.88498 7.82868,8.83884 10.10153,22.47589 4.04061,18.18275 16.93322,8.38765 -19.69844,-5.61496 -4.30585,-19.94529 -9.09138,-12.37437 -6.31345,-7.3236 -24.49619,-6.81853 27.27411,2.77792 z"
         style="fill:#82573c;fill-opacity:1;fill-rule:evenodd;stroke:none;stroke-width:1px;stroke-linecap:butt;stroke-linejoin:miter;stroke-opacity:1" />
      <path
         inkscape:connector-curvature="0"
         id="path4271"
         d="m 78.791899,822.29996 -5.050763,-9.84899 -12.626907,29.29443 -35.355339,25.50635 -1.767767,21.71828 8.586297,15.40483 -5.555839,-13.63706 1.767767,-19.95052 38.638334,-24.49619 z"
         style="fill:#82573c;fill-opacity:1;fill-rule:evenodd;stroke:none;stroke-width:1px;stroke-linecap:butt;stroke-linejoin:miter;stroke-opacity:1" />
      <path
         inkscape:connector-curvature="0"
         id="path4273"
         d="m 116.16754,801.84437 -10.10152,-10.6066 -12.121833,-79.80205 5.555839,77.27667 3.535534,16.66752 -8.081221,20.70812 15.152291,-18.18274 17.17259,-1.51523 z"
         style="fill:#82573c;fill-opacity:1;fill-rule:evenodd;stroke:none;stroke-width:1px;stroke-linecap:butt;stroke-linejoin:miter;stroke-opacity:1" />
      <path
         inkscape:connector-curvature="0"
         id="path4275"
         d="m 84.347738,524.05242 2.020305,93.43911 -12.626907,-69.70052 7.071068,12.6269 -2.020305,-37.37564 -7.576145,11.61675 2.525382,-13.13198 z"
         style="fill:#82573c;fill-opacity:1;fill-rule:evenodd;stroke:none;stroke-width:1px;stroke-linecap:butt;stroke-linejoin:miter;stroke-opacity:1" />
      <path
         inkscape:connector-curvature="0"
         id="path4277"
         d="m 61.619305,809.92559 9.596449,-49.49747 3.535534,30.30458 11.616755,15.65736 -7.071068,-18.18275 -1.515229,-30.80965 6.565992,-48.9924 -15.657365,38.3858 -2.020305,-58.08377 -5.555839,-49.49748 6.565992,11.11168 7.071067,35.86042 -4.545686,-59.09393 -9.596449,-60.10407 3.535534,52.52793 -6.060916,-12.12183 -10.101525,-78.28682 -4.545687,1.51522 14.142136,116.16755 5.555839,96.97464 z"
         style="fill:#cc8051;fill-opacity:1;fill-rule:evenodd;stroke:none;stroke-width:1px;stroke-linecap:butt;stroke-linejoin:miter;stroke-opacity:1" />
    </g>
    <g
       id="g4295"
       inkscape:export-xdpi="149.79022"
       inkscape:export-ydpi="149.79022"
       transform="translate(9.0913729,6.0609153)">
      <path
         sodipodi:nodetypes="ccccccccccccccccccc"
         inkscape:connector-curvature="0"
         id="path4289"
         d="m 215.16249,466.47373 2.02031,20.20305 57.57869,-26.26397 47.47717,-14.14213 51.51778,-4.04061 36.36549,-8.08122 -2.0203,-9.09138 -37.88072,10.10153 -43.94164,1.01015 -33.33503,4.04061 23.23351,-13.13198 32.82996,-9.59645 -0.50508,-5.55584 -33.33504,8.08122 -31.31472,16.16244 -28.28428,17.1726 -34.34518,5.05076 -8.08122,1.01015 z"
         style="fill:#a06742;fill-opacity:1;fill-rule:evenodd;stroke:none;stroke-width:1px;stroke-linecap:butt;stroke-linejoin:miter;stroke-opacity:1" />
      <path
         inkscape:connector-curvature="0"
         id="path4291"
         d="m 217.68787,484.65647 -1.01015,-7.57614 54.04316,-19.69797 49.49748,-14.64722 55.05331,-4.54568 34.34519,-8.08122 0,3.53553 -35.86042,8.5863 -51.51778,4.04061 -47.98224,14.14213 z"
         style="fill:#82573c;fill-opacity:1;fill-rule:evenodd;stroke:none;stroke-width:1px;stroke-linecap:butt;stroke-linejoin:miter;stroke-opacity:1" />
      <path
         inkscape:connector-curvature="0"
         id="path4293"
         d="m 214.65742,463.44327 c 2.52538,0 42.93148,-7.07107 42.93148,-7.07107 l 37.88072,-22.72843 21.2132,-11.61675 31.31473,-8.08122 0,-1.51523 -32.82996,6.56599 -60.10407,32.82996 -42.42641,7.57614 z"
         style="fill:#cc8051;fill-opacity:1;fill-rule:evenodd;stroke:none;stroke-width:1px;stroke-linecap:butt;stroke-linejoin:miter;stroke-opacity:1" />
    </g>
    <g
       id="g4306"
       inkscape:export-xdpi="149.79022"
       inkscape:export-ydpi="149.79022">
      <path
         inkscape:connector-curvature="0"
         id="path4300"
         d="m 218.19295,508.39506 3.03046,30.30458 23.73858,-17.67767 -3.03046,-15.15229 z"
         style="fill:#a06742;fill-rule:evenodd;stroke:none;stroke-width:1px;stroke-linecap:butt;stroke-linejoin:miter;stroke-opacity:1;fill-opacity:1" />
      <path
         inkscape:connector-curvature="0"
         id="path4302"
         d="m 218.95056,514.70851 23.73859,-4.79822 -0.25254,-4.29315 -23.73858,3.03046 z"
         style="fill:#af6f47;fill-rule:evenodd;stroke:none;stroke-width:1px;stroke-linecap:butt;stroke-linejoin:miter;stroke-opacity:1;fill-opacity:1" />
      <path
         inkscape:connector-curvature="0"
         id="path4304"
         d="m 220.21326,527.58796 1.51522,10.85914 23.23351,-17.42513 -1.01015,-4.54569 z"
         style="fill:#82573c;fill-rule:evenodd;stroke:none;stroke-width:1px;stroke-linecap:butt;stroke-linejoin:miter;stroke-opacity:1;fill-opacity:1" />
    </g>
    <g
       id="g4321"
       transform="translate(52.142857,-10.714286)"
       inkscape:export-xdpi="149.79022"
       inkscape:export-ydpi="149.79022">
      <path
         inkscape:connector-curvature="0"
         id="path4315"
         d="m 610.35715,390.57649 2.14285,40.35715 6.78572,0 -0.35715,-40.71429 z"
         style="fill:#a06742;fill-opacity:1;fill-rule:evenodd;stroke:none;stroke-width:1px;stroke-linecap:butt;stroke-linejoin:miter;stroke-opacity:1"
         sodipodi:nodetypes="ccccc" />
      <path
         inkscape:connector-curvature="0"
         id="path4313"
         d="m 578.92857,350.57649 2.14286,44.28571 3.57143,0.71429 68.57143,-4.64286 -0.71429,-45.35714 -4.28571,0.35714 z"
         style="fill:#82573c;fill-opacity:1;fill-rule:evenodd;stroke:none;stroke-width:1px;stroke-linecap:butt;stroke-linejoin:miter;stroke-opacity:1" />
      <path
         sodipodi:nodetypes="cccccccccccccc"
         inkscape:connector-curvature="0"
         id="path4311"
         d="m 577.30218,348.28588 1.24282,28.27404 6.46172,0.87325 -6.25937,1.94444 0.57514,14.87021 70.71067,-4.54569 -0.50507,-16.66751 -14.64721,1.01015 14.64721,-3.53553 -0.50508,-12.62691 -27.77919,2.52538 27.77919,-5.05076 0,-10.6066 z"
         style="fill:#a06742;fill-opacity:1;fill-rule:evenodd;stroke:none;stroke-width:1px;stroke-linecap:butt;stroke-linejoin:miter;stroke-opacity:1" />
      <path
         inkscape:connector-curvature="0"
         id="path4319"
         d="m 602.14286,366.64792 c -1.54762,0 -3.09524,0 -4.64286,0 -0.11905,0 -0.23809,0 -0.35714,0 -0.11905,0 -0.27297,-0.0842 -0.35714,0 -0.0842,0.0842 0.0842,0.27296 0,0.35714 -0.0842,0.0842 -0.2381,0 -0.35715,0 -0.23809,0 -0.50132,-0.10648 -0.71428,0 -0.95238,0.47619 1.07143,0.35714 -0.35715,0.35714 -0.35714,0 -0.75199,-0.15972 -1.07142,0 -0.10648,0.0532 0.0842,0.27297 0,0.35715 -0.17858,0.17857 -0.89286,-0.17857 -1.07143,0 -0.0842,0.0842 0.0842,0.27296 0,0.35714 -0.0842,0.0842 -0.2381,0 -0.35715,0 -0.11904,0 -0.23809,0 -0.35714,0 -0.95238,0 0.11905,-0.11905 -0.35714,0.35714 -0.0859,0.0859 -1.34263,-0.0859 -1.42857,0 -0.0842,0.0842 0.0532,0.25067 0,0.35715 -0.0753,0.15058 -0.28185,0.20655 -0.35715,0.35714 -0.0532,0.10648 0.0842,0.27296 0,0.35714 -0.0842,0.0842 -0.27296,-0.0842 -0.35714,0 -0.0842,0.0842 0.0842,0.27296 0,0.35714 -0.0842,0.0842 -0.27296,-0.0842 -0.35714,0 -0.0842,0.0842 0.0842,0.27297 0,0.35715 -0.0842,0.0842 -0.27297,-0.0842 -0.35714,0 -0.0115,0.0115 0,0.98481 0,1.07143 0,0.13115 -0.0144,1.41419 0,1.42857 0.073,0.073 0.92982,-0.0708 1.07142,0 0.15059,0.0753 0.19743,0.3039 0.35715,0.35714 0.33881,0.11294 0.71428,0 1.07143,0 0.71428,0 1.42857,0 2.14285,0 0.71429,0 1.42857,0 2.14286,0 0.35714,0 0.73261,0.11294 1.07143,0 0.15972,-0.0532 0.20656,-0.28185 0.35714,-0.35714 0.10648,-0.0532 0.2381,0 0.35714,0 0.2381,0 0.47619,0 0.71429,0 0.48397,0 2.26369,0.0788 2.5,0 0.15972,-0.0532 0.23809,-0.2381 0.35714,-0.35715 0.35715,-0.11904 0.70228,-0.28331 1.07143,-0.35714 0.22421,-0.0448 1.60892,0.0884 1.78572,0 0.15058,-0.0753 0.20655,-0.28185 0.35714,-0.35714 0.22447,-0.11224 1.2041,0.11223 1.42857,0 0.15058,-0.0753 0.20656,-0.28185 0.35714,-0.35714 0.10648,-0.0532 0.24421,0.0376 0.35715,0 0.25253,-0.0842 0.45603,-0.29259 0.71428,-0.35715 0.25023,-0.0625 2.01354,0 2.14286,0 0.11905,0 0.2442,0.0376 0.35714,0 0.25254,-0.0842 0.45604,-0.29258 0.71429,-0.35714 0.34648,-0.0866 0.71428,0 1.07143,0 1.54761,0 3.09523,0 4.64285,0 0.47619,0 0.95238,0 1.42857,0 0.11905,0 0.2381,0 0.35715,0 0.11904,0 0.25066,0.0532 0.35714,0 0.15058,-0.0753 0.20656,-0.28185 0.35714,-0.35714 0.21296,-0.10648 0.50133,0.10648 0.71429,0 0.15058,-0.0753 0.20656,-0.28185 0.35714,-0.35715 0.24669,-0.12334 1.66035,0.12537 1.78572,0 0.0842,-0.0842 -0.0842,-0.27296 0,-0.35714 0.0842,-0.0842 0.23809,0 0.35714,0 0.11905,0 0.23809,0 0.35714,0 0.11905,0 0.35714,-0.11905 0.35714,0 0,0.11905 -0.27296,-0.0842 -0.35714,0 -0.0842,0.0842 0.0376,0.24421 0,0.35714 -0.0842,0.25254 -0.23809,0.47619 -0.35714,0.71429 -0.11905,0.23809 -0.16891,0.52605 -0.35714,0.71429 -0.18824,0.18823 -0.52606,0.16891 -0.71429,0.35714 -0.24262,0.24261 0.36517,0.71027 -0.35714,1.07143 -0.21296,0.10648 -0.50133,-0.10648 -0.71429,0 -0.15058,0.0753 -0.23809,0.23809 -0.35714,0.35714 -0.2381,0.23809 -0.51226,0.44491 -0.71429,0.71429 -0.15972,0.21295 -0.16891,0.52605 -0.35714,0.71428 -0.30351,0.30351 -0.76792,0.41077 -1.07143,0.71429 -0.0842,0.0842 0.0842,0.27296 0,0.35714 -0.0842,0.0842 -0.27296,-0.0842 -0.35714,0 -0.0842,0.0842 0.0842,0.27296 0,0.35714 -0.18823,0.18823 -0.4928,0.20948 -0.71429,0.35715 -0.14008,0.0934 -0.20656,0.28185 -0.35714,0.35714 -0.10648,0.0532 -0.25066,-0.0532 -0.35714,0 -0.15059,0.0753 -0.20656,0.28185 -0.35715,0.35714 -0.10648,0.0532 -0.27296,-0.0842 -0.35714,0 -0.16836,0.16836 0.16836,0.54593 0,0.71429 -0.0842,0.0842 -0.27296,-0.0842 -0.35714,0 -0.16836,0.16836 0.16836,0.54592 0,0.71428 -0.0842,0.0842 -0.27297,-0.0842 -0.35714,0 -0.16836,0.16836 0.16835,0.54593 0,0.71429 -0.0842,0.0842 -0.27297,-0.0842 -0.35715,0 -0.0842,0.0842 0.0842,0.27296 0,0.35714 -0.0842,0.0842 -0.27296,-0.0842 -0.35714,0 -0.0842,0.0842 0.0532,0.25066 0,0.35714 -0.0753,0.15059 -0.28185,0.20656 -0.35714,0.35715 -0.0532,0.10648 0.0842,0.27296 0,0.35714 -0.23807,0.23807 -0.47622,-0.23807 -0.71429,0 -0.0842,0.0842 0,0.23809 0,0.35714 0,0.11905 0,0.2381 0,0.35715 0,0.0866 -0.0115,1.05994 0,1.07142 0.0842,0.0842 0.27296,-0.0842 0.35714,0 0.0842,0.0842 -0.0842,0.27297 0,0.35715 0.16836,0.16836 0.54593,-0.16836 0.71429,0 0.0842,0.0842 -0.0842,0.27296 0,0.35714 0.0842,0.0842 0.25066,-0.0532 0.35714,0 0.15059,0.0753 0.19743,0.3039 0.35715,0.35714 0.23631,0.0788 2.01602,0 2.5,0 0.29232,0 2.03835,0.0523 2.14285,0 0.10648,-0.0532 -0.0532,-0.25066 0,-0.35714 0.0753,-0.15059 0.26376,-0.21706 0.35715,-0.35714 0.14766,-0.22149 0.20948,-0.4928 0.35714,-0.71429 0.3951,-0.59265 1.27754,-1.04744 1.78571,-1.42857 1.09399,-0.82049 -0.58558,0.22844 0.71429,-1.07143 0.65818,-0.65819 1.08115,-0.64869 1.78571,-1.07143 0.72901,-0.0535 1.25631,-1.07563 1.78572,-1.42857 0.1981,-0.13207 0.54592,0.16836 0.71428,0 0.0842,-0.0842 -0.0532,-0.25066 0,-0.35714 0.0753,-0.15059 0.28185,-0.20656 0.35715,-0.35714 0.10647,-0.21296 -0.16836,-0.54593 0,-0.71429 0.0842,-0.0842 0.27296,0.0842 0.35714,0 0.0842,-0.0842 -0.0532,-0.25066 0,-0.35714 0.0753,-0.15059 0.28185,-0.20656 0.35714,-0.35715 0.0708,-0.1416 -0.073,-0.99841 0,-1.07142 0.0842,-0.0842 0.27296,0.0842 0.35714,0 0.16836,-0.16836 -0.16835,-0.54593 0,-0.71429 0.0842,-0.0842 0.27297,0.0842 0.35715,0 0,-0.95238 -0.11905,0.11905 0.35714,-0.35714 0.73894,-0.73894 -1.1292,0.0289 0.35714,-0.71429 0.10648,-0.0532 0.27297,0.0842 0.35715,0 0.16835,-0.16836 -0.16836,-0.54593 0,-0.71428 0.16835,-0.16836 0.50132,0.10647 0.71428,0 0.18448,-0.0922 1.66457,-1.66457 1.78572,-1.78572 0.23809,-0.23809 0.47619,-0.47619 0.71428,-0.71428 0.11905,-0.11905 0.20656,-0.28186 0.35714,-0.35715 0.10648,-0.0532 0.27297,0.0842 0.35715,0 0.0842,-0.0842 -0.0842,-0.27296 0,-0.35714 0.0842,-0.0842 0.23809,0 0.35714,0 0.23809,-0.2381 0.52751,-0.43412 0.71429,-0.71429 0.066,-0.099 -0.0842,-0.27296 0,-0.35714 0.16835,-0.16836 0.54592,0.16836 0.71428,0 0.0842,-0.0842 -0.0842,-0.27296 0,-0.35714 0.0842,-0.0842 0.27296,0.0842 0.35714,0 0.0842,-0.0842 -0.0842,-0.27297 0,-0.35714 0.0842,-0.0842 0.27297,0.0842 0.35715,0 0.0842,-0.0842 -0.0842,-0.27297 0,-0.35715 0.0842,-0.0842 0.27296,0.0842 0.35714,0 0.0842,-0.0842 -0.0842,-0.27296 0,-0.35714 0.0842,-0.0842 0.27296,0.0842 0.35714,0 0.0842,-0.0842 -0.0842,-0.27296 0,-0.35714 0.0842,-0.0842 0.25067,0.0532 0.35715,0 0.15058,-0.0753 0.20655,-0.28185 0.35714,-0.35715 0.10648,-0.0532 0.27296,0.0842 0.35714,0 0.0842,-0.0842 0,-0.23809 0,-0.35714 0,-0.11905 0,-0.23809 0,-0.35714 0,-0.11905 0.0842,-0.27297 0,-0.35714 -0.0842,-0.0842 -0.25066,0.0532 -0.35714,0 -0.15059,-0.0753 -0.20656,-0.28186 -0.35714,-0.35715 -0.10648,-0.0532 -0.25067,0.0532 -0.35715,0 -0.42857,-0.21428 -0.64285,-0.85714 -1.07143,-1.07143 -0.21295,-0.10648 -0.47619,0 -0.71428,0 -0.11905,0 -0.27297,0.0842 -0.35714,0 -0.0842,-0.0842 0.10647,-0.3039 0,-0.35714 -1.62582,0 -0.0204,0.16836 -1.07143,-0.35714 -0.10648,-0.0532 -0.27297,0.0842 -0.35715,0 -0.0842,-0.0842 0.0532,-0.25067 0,-0.35714 -0.20471,-0.40944 -0.74518,-0.49679 -1.07142,-0.71429 -1.07143,-0.71429 0.71428,0 -1.07143,-1.07143 -0.32282,-0.19369 -0.77026,-0.13127 -1.07143,-0.35714 -0.21296,-0.15972 -0.13565,-0.56663 -0.35714,-0.71429 -0.19811,-0.13207 -0.48841,0.0753 -0.71429,0 -0.15972,-0.0532 -0.20656,-0.28185 -0.35714,-0.35714 -0.10648,-0.0532 -0.27297,0.0842 -0.35715,0 -0.0842,-0.0842 0,-0.2381 0,-0.35714 -0.11904,-0.11905 -0.21706,-0.26376 -0.35714,-0.35715 -0.93618,-0.62412 -0.62412,-0.13349 -1.78571,-0.71428 -1.63451,-0.81725 1.5155,0.14802 -1.07143,-0.71429 -0.11294,-0.0376 -0.27297,0.0842 -0.35714,0 -0.0842,-0.0842 0.0842,-0.27296 0,-0.35714 -0.16836,-0.16836 -0.54593,0.16836 -0.71429,0 -0.0842,-0.0842 0.0842,-0.27296 0,-0.35714 -0.0842,-0.0842 -0.25066,0.0532 -0.35714,0 -0.15059,-0.0753 -0.20656,-0.28185 -0.35715,-0.35715 -0.10648,-0.0532 -0.27296,0.0842 -0.35714,0 -0.0842,-0.0842 0.0842,-0.27296 0,-0.35714 -0.16836,-0.16836 -0.54593,0.16836 -0.71428,0 -0.0842,-0.0842 0.0842,-0.27296 0,-0.35714 -0.0842,-0.0842 -0.25067,0.0532 -0.35715,0 -0.15058,-0.0753 -0.20656,-0.28185 -0.35714,-0.35714 -0.10648,-0.0532 -0.27296,0.0842 -0.35714,0 -0.0842,-0.0842 0.0842,-0.27297 0,-0.35715 -0.17857,-0.17857 -0.89286,0.17857 -1.07143,0 -0.0842,-0.0842 0.0842,-0.27296 0,-0.35714 -0.0842,-0.0842 -0.27297,0.0842 -0.35714,0 -0.0842,-0.0842 0.0842,-0.27296 0,-0.35714 -0.16836,-0.16836 -0.54593,0.16836 -0.71429,0 -0.0842,-0.0842 0.0842,-0.27297 0,-0.35715 -0.11579,-0.11578 -1.55904,0.11334 -1.78571,0 -0.15059,-0.0753 -0.20656,-0.28185 -0.35715,-0.35714 -0.10648,-0.0532 -0.23809,0 -0.35714,0 -0.35714,0 -0.71429,0 -1.07143,0 -0.24841,0 -1.65656,-0.0646 -1.78571,0 -0.15059,0.0753 -0.26376,0.21706 -0.35715,0.35714 -0.14766,0.22149 -0.20948,0.4928 -0.35714,0.71429 -0.0934,0.14008 -0.28185,0.20656 -0.35714,0.35714 -0.0532,0.10648 0.0532,0.25067 0,0.35715 -0.0753,0.15058 -0.28185,0.20655 -0.35714,0.35714 -0.0152,0.0304 -0.0152,1.39812 0,1.42857 0.0753,0.15058 0.23809,0.23809 0.35714,0.35714 0.11905,0.11905 0.20656,0.28185 0.35714,0.35715 0.10648,0.0532 0.24165,-0.0289 0.35714,0 0.36523,0.0913 0.70621,0.26583 1.07143,0.35714 0.1155,0.0289 0.27297,-0.0842 0.35715,0 0.0842,0.0842 -0.10648,0.3039 0,0.35714 0.23105,0.11553 1.30028,-0.12829 1.42857,0 0.0842,0.0842 -0.0532,0.25066 0,0.35714 0.33545,0.67091 1.31062,0.59634 1.78571,1.07143 0.18823,0.18823 0.16891,0.52606 0.35714,0.71429 0.18823,0.18823 0.4928,0.20948 0.71429,0.35714 0.32511,0.21674 0.75488,0.91315 1.07143,1.07143 0.10648,0.0532 0.27296,-0.0842 0.35714,0 0.0842,0.0842 -0.0842,0.27296 0,0.35714 0.0842,0.0842 0.27296,-0.0842 0.35714,0 0.0842,0.0842 -0.0842,0.27297 0,0.35715 0.0842,0.0842 0.27297,-0.0842 0.35715,0 0.0842,0.0842 -0.10648,0.3039 0,0.35714 0.21296,0.10648 0.47619,0 0.71428,0 0.11905,0 0.27297,-0.0842 0.35715,0 0.0842,0.0842 -0.0842,0.27296 0,0.35714 0.0842,0.0842 0.25066,-0.0532 0.35714,0 0.15058,0.0753 0.23809,0.2381 0.35714,0.35714 0.11905,0.11905 0.35714,0.18879 0.35714,0.35715 0,0.23809 -0.50132,-0.10648 -0.71428,0 -0.15059,0.0753 -0.19743,0.3039 -0.35714,0.35714 -0.22588,0.0753 -0.4762,0 -0.71429,0 -0.59524,0 -1.19048,0 -1.78571,0 -0.31488,0 -0.76712,-0.0761 -1.07143,0 -0.36522,0.0913 -0.70228,0.28331 -1.07143,0.35714 -0.23347,0.0467 -0.47619,0 -0.71429,0 -0.11905,0 -0.25066,-0.0532 -0.35714,0 -0.15059,0.0753 -0.20656,0.28185 -0.35714,0.35715 -0.21687,0.10843 -1.926,-0.10844 -2.14286,0 -0.15059,0.0753 -0.19381,0.3163 -0.35714,0.35714 -0.0779,0.0195 -1.62322,-0.0813 -1.78572,0 -0.15058,0.0753 -0.23809,0.23809 -0.35714,0.35714 -0.2381,0 -0.48841,-0.0753 -0.71429,0 -0.15972,0.0532 -0.19742,0.3039 -0.35714,0.35714 -0.22588,0.0753 -0.47619,0 -0.71428,0 -0.35715,0 -0.73262,-0.11293 -1.07143,0 -0.11294,0.0377 0.0842,0.27297 0,0.35715 -0.0977,0.0977 -1.23483,-0.0969 -1.42857,0 -0.15059,0.0753 -0.20656,0.28185 -0.35715,0.35714 -0.22531,0.11265 -1.5604,-0.11266 -1.78571,0 -0.15059,0.0753 -0.20656,0.28185 -0.35714,0.35714 -0.28572,0.14286 -0.78572,-0.14285 -1.07143,0 -0.38392,0.19196 -0.71429,0.47619 -1.07143,0.71429 z"
         style="fill:#972c2c;fill-opacity:0.77906979;fill-rule:evenodd;stroke:none;stroke-width:1px;stroke-linecap:butt;stroke-linejoin:miter;stroke-opacity:1" />
    </g>
    <path
       style="fill:#82573c;fill-rule:evenodd;stroke:none;stroke-width:1px;stroke-linecap:butt;stroke-linejoin:miter;stroke-opacity:1;fill-opacity:1"
       d="m 663.57143,382.89792 7.5,10 -0.17857,-10.53572 z"
       id="path4327"
       inkscape:connector-curvature="0" />
    <g
       id="g4368"
       inkscape:export-xdpi="163.97229"
       inkscape:export-ydpi="163.97229">
      <path
         inkscape:connector-curvature="0"
         id="path4329"
         d="m 493.57143,484.50506 -2.14286,-24.28571 10,-15.71429 L 520,443.07649 607.85714,478.79078 615,470.21935 l 109.28572,56.42857 9.28571,23.57143 0,37.85714 -16.42857,15.71429 -66.42857,-13.57143 -47.85715,-22.14286 -83.57143,-43.57143 -7.14285,-20.71428 L 520,494.50506 Z"
         style="fill:#916f6f;fill-rule:evenodd;stroke:none;stroke-width:1px;stroke-linecap:butt;stroke-linejoin:miter;stroke-opacity:1;fill-opacity:1" />
      <path
         inkscape:connector-curvature="0"
         id="path4329-7"
         d="m 547.06384,582.14413 -1.70671,-19.3426 7.96461,-12.51581 14.7914,-1.1378 69.97471,28.44501 5.68901,-6.8268 87.04172,44.94311 7.3957,18.7737 0,30.15171 -13.0847,12.5158 -52.90771,-10.8091 -38.11632,-17.63591 -66.56131,-34.70291 -5.689,-16.4981 6.2579,-7.3957 z"
         style="fill:#916f6f;fill-opacity:1;fill-rule:evenodd;stroke:none;stroke-width:1px;stroke-linecap:butt;stroke-linejoin:miter;stroke-opacity:1" />
      <path
         inkscape:connector-curvature="0"
         id="path4346"
         d="m 546.9976,570.01436 10.60661,8.08122 27.27411,9.59645 40.40611,16.16244 1.51522,-4.54568 -32.82995,-14.64721 20.20305,4.04061 51.0127,20.70812 21.71828,2.52538 -5.05076,-10.10152 11.61675,9.09137 -0.50507,7.07107 -16.16244,-1.01015 -32.82996,-8.08122 38.38579,18.18274 16.66752,0 1.51523,6.56599 16.16244,5.05077 5.55584,-3.53554 6.06092,-15.65736 -0.50508,-4.54569 3.03046,1.01015 7.57614,18.68783 0,8.08122 -11.61675,8.08122 -13.13199,-0.50508 -26.26396,-9.59645 -28.78935,-11.11168 -4.04061,-8.08122 -31.81981,-8.08122 -25.75889,-10.6066 -28.28427,-12.12183 -22.72843,-8.5863 z"
         style="fill:#726072;fill-rule:evenodd;stroke:none;stroke-width:1px;stroke-linecap:butt;stroke-linejoin:miter;stroke-opacity:1;fill-opacity:1" />
      <path
         inkscape:connector-curvature="0"
         id="path4348"
         d="m 562.65497,598.29864 10.10152,12.6269 50.00255,24.74874 9.59645,1.51523 -17.17259,-14.14214 27.27412,14.14214 34.85026,15.65736 4.54569,-5.05076 5.05076,5.55584 -4.54569,6.06091 21.71828,4.54569 16.66752,1.51523 8.08122,-17.67767 8.5863,-7.07107 0.50507,24.74874 -12.6269,11.11168 -55.55839,-10.6066 -102.53049,-51.51778 z"
         style="fill:#726072;fill-rule:evenodd;stroke:none;stroke-width:1px;stroke-linecap:butt;stroke-linejoin:miter;stroke-opacity:1;fill-opacity:1" />
      <path
         inkscape:connector-curvature="0"
         id="path4350"
         d="m 514.16765,506.87983 5.05076,17.17259 47.98224,25.75889 27.7792,9.59645 2.52538,10.10153 19.1929,6.06091 9.09137,-3.53553 42.42641,17.17259 5.55584,6.06092 44.44671,15.15229 -15.65736,-10.10153 13.63706,3.53553 17.17259,-15.65736 0,-27.27412 -7.57615,-3.53553 -8.58629,11.11168 0,13.13198 -12.12183,5.05076 -22.22336,-6.56599 -35.86041,-15.15229 2.52538,-3.03046 28.28427,11.11168 5.05076,-2.0203 -7.07107,-4.54569 -23.23351,-8.08122 -30.80965,-12.12183 -8.08122,-6.06092 3.03046,0.50508 28.28427,8.08122 -3.53553,-4.04061 -39.90103,-14.14214 -23.73858,-7.07106 0,4.54568 21.71828,10.10153 3.03045,6.06091 -9.09137,1.01016 -21.2132,-5.55584 -21.71828,-11.61676 -14.14214,-10.10152 -5.05076,-5.05076 -6.06092,4.04061 -5.05076,-4.54569 z"
         style="fill:#726072;fill-rule:evenodd;stroke:none;stroke-width:1px;stroke-linecap:butt;stroke-linejoin:miter;stroke-opacity:1;fill-opacity:1" />
      <path
         inkscape:connector-curvature="0"
         id="path4352"
         d="m 724.27938,527.58796 2.52538,12.6269 -7.07107,4.04061 -17.67767,-1.01015 -38.3858,-12.12183 -50.50762,-18.18274 -8.5863,-8.5863 6.06091,1.51523 6.566,4.04061 13.63705,4.04061 9.09138,-1.51523 -2.02031,-4.04061 -20.70812,-10.10153 -17.1726,-5.55584 c 0,0 1.01015,-3.03045 3.03046,-3.03045 2.0203,0 45.45686,17.17259 45.45686,17.17259 l 32.82996,14.14214 -7.57614,1.51522 -15.65737,-2.0203 11.11168,4.04061 40.91118,12.12183 z"
         style="fill:#726072;fill-rule:evenodd;stroke:none;stroke-width:1px;stroke-linecap:butt;stroke-linejoin:miter;stroke-opacity:1;fill-opacity:1" />
      <path
         inkscape:connector-curvature="0"
         id="path4354"
         d="m 491.43921,461.42297 2.52538,23.2335 27.7792,10.60661 42.93148,16.66751 29.7995,7.07107 18.68783,8.08122 16.16244,0.50508 5.05076,-5.05077 0,-5.05076 -13.13198,-3.53553 -1.51523,5.55584 -15.65737,-3.53554 -16.16244,-7.57614 -27.27412,-8.5863 -9.59645,-11.11168 6.06092,-0.50507 8.5863,-1.51523 -9.59645,-7.57615 -14.64722,-5.05076 -31.31472,-10.6066 2.52538,7.07107 8.58629,7.07107 -8.08122,3.53553 -14.64721,-8.08122 z"
         style="fill:#726072;fill-rule:evenodd;stroke:none;stroke-width:1px;stroke-linecap:butt;stroke-linejoin:miter;stroke-opacity:1;fill-opacity:1" />
      <path
         inkscape:connector-curvature="0"
         id="path4356"
         d="m 495.35714,455.57649 9.28572,-5.71429 16.78571,0 96.42857,33.92858 3.57143,-3.57143 99.28572,45 -105.71429,-55 -6.42857,7.85714 L 520,443.43363 501.42857,444.8622 Z"
         style="fill:#af9d8e;fill-rule:evenodd;stroke:none;stroke-width:1px;stroke-linecap:butt;stroke-linejoin:miter;stroke-opacity:1;fill-opacity:1" />
      <path
         inkscape:connector-curvature="0"
         id="path4358"
         d="m 533.57143,511.29078 12.14286,-1.78572 30.71428,12.85714 -27.5,-17.85714 -6.78571,0 z"
         style="fill:#af9d8e;fill-rule:evenodd;stroke:none;stroke-width:1px;stroke-linecap:butt;stroke-linejoin:miter;stroke-opacity:1;fill-opacity:1" />
      <path
         sodipodi:nodetypes="ccccccccc"
         inkscape:connector-curvature="0"
         id="path4360"
         d="m 640.35714,528.43363 7.14286,-1.42857 36.78571,13.21429 34.64286,8.21428 -34.28571,-14.64285 -37.85714,-13.57143 -8.21429,2.14285 c 0,0 -3.92857,4.28572 -4.28571,6.07143 z"
         style="fill:#af9d8e;fill-opacity:1;fill-rule:evenodd;stroke:none;stroke-width:1px;stroke-linecap:butt;stroke-linejoin:miter;stroke-opacity:1" />
      <path
         inkscape:connector-curvature="0"
         id="path4362"
         d="m 611.78572,578.43363 7.5,-5 5.35714,-1.78571 44.28571,16.78571 -30.35714,-6.78571 -14.64286,-3.57143 z"
         style="fill:#af9d8e;fill-rule:evenodd;stroke:none;stroke-width:1px;stroke-linecap:butt;stroke-linejoin:miter;stroke-opacity:1;fill-opacity:1" />
      <path
         inkscape:connector-curvature="0"
         id="path4364"
         d="m 546.07143,562.71935 11.07143,-7.5 13.92857,-5 -4.28571,-1.07143 -14.64286,1.42857 z"
         style="fill:#af9d8e;fill-rule:evenodd;stroke:none;stroke-width:1px;stroke-linecap:butt;stroke-linejoin:miter;stroke-opacity:1;fill-opacity:1" />
      <path
         inkscape:connector-curvature="0"
         id="path4366"
         d="M 565.35714,485.93363 565,480.21935 l 3.92857,-1.07143 32.85715,11.42857 -28.21429,-5 z"
         style="fill:#af9d8e;fill-rule:evenodd;stroke:none;stroke-width:1px;stroke-linecap:butt;stroke-linejoin:miter;stroke-opacity:1;fill-opacity:1" />
    </g>
    <g
       inkscape:export-ydpi="149.79022"
       inkscape:export-xdpi="149.79022"
       transform="translate(-50,-10)"
       id="g4383">
      <path
         sodipodi:nodetypes="ccccc"
         style="fill:#a06742;fill-opacity:1;fill-rule:evenodd;stroke:none;stroke-width:1px;stroke-linecap:butt;stroke-linejoin:miter;stroke-opacity:1"
         d="m 610.35715,390.57649 2.14285,40.35715 6.78572,0 -0.35715,-40.71429 z"
         id="path4385"
         inkscape:connector-curvature="0" />
      <path
         style="fill:#82573c;fill-opacity:1;fill-rule:evenodd;stroke:none;stroke-width:1px;stroke-linecap:butt;stroke-linejoin:miter;stroke-opacity:1"
         d="m 578.92857,350.57649 2.14286,44.28571 3.57143,0.71429 68.57143,-4.64286 -0.71429,-45.35714 -4.28571,0.35714 z"
         id="path4387"
         inkscape:connector-curvature="0" />
      <path
         style="fill:#a06742;fill-opacity:1;fill-rule:evenodd;stroke:none;stroke-width:1px;stroke-linecap:butt;stroke-linejoin:miter;stroke-opacity:1"
         d="m 577.30218,348.28588 1.24282,28.27404 6.46172,0.87325 -6.25937,1.94444 0.57514,14.87021 70.71067,-4.54569 -0.50507,-16.66751 -14.64721,1.01015 14.64721,-3.53553 -0.50508,-12.62691 -27.77919,2.52538 27.77919,-5.05076 0,-10.6066 z"
         id="path4389"
         inkscape:connector-curvature="0"
         sodipodi:nodetypes="cccccccccccccc" />
      <path
         style="fill:#972c2c;fill-opacity:0.77906979;fill-rule:evenodd;stroke:none;stroke-width:1px;stroke-linecap:butt;stroke-linejoin:miter;stroke-opacity:1"
         d="m 617.40523,378.33352 c 0.24868,1.15632 0.49735,2.31265 0.74602,3.46899 0.0191,0.0889 0.0382,0.17788 0.0574,0.26684 0.0191,0.0889 0.15792,0.19649 0.0574,0.26684 -0.10054,0.0704 -0.38331,-0.0388 -0.48382,0.0317 -0.10055,0.0704 0.0382,0.17791 0.0574,0.26686 0.0383,0.17789 0.22481,0.36512 0.11473,0.53368 -0.49208,0.75378 -0.65598,-0.76889 -0.42644,0.29849 0.0574,0.26685 0.33721,0.54772 0.17216,0.80054 -0.055,0.0843 -0.38333,-0.0388 -0.48385,0.0317 -0.21322,0.14926 0.38538,0.65131 0.17215,0.80054 -0.10054,0.0704 -0.38331,-0.0388 -0.48382,0.0317 -0.10055,0.0703 0.0382,0.1779 0.0574,0.26684 0.0191,0.0889 0.0383,0.1779 0.0574,0.26685 0.15303,0.71158 0.14216,-0.0995 -0.42644,0.29848 -0.10259,0.0718 0.33211,0.99556 0.22954,1.06738 -0.10054,0.0704 -0.34815,-0.0175 -0.48385,0.0317 -0.19189,0.0696 -0.23454,0.2289 -0.42644,0.2985 -0.13575,0.0493 -0.38333,-0.0388 -0.48383,0.0317 -0.10054,0.0704 0.15792,0.19648 0.0574,0.26684 -0.10054,0.0704 -0.38332,-0.0388 -0.48382,0.0317 -0.10054,0.0704 0.15792,0.19648 0.0574,0.26684 -0.10054,0.0704 -0.38333,-0.0388 -0.48384,0.0317 -0.10054,0.0703 0.15793,0.19649 0.0574,0.26683 -0.0138,0.01 -1.33415,0.0872 -1.45151,0.095 -0.17767,0.0116 -1.91354,0.13608 -1.93534,0.12659 -0.11064,-0.0481 -0.0535,-0.70101 -0.17215,-0.80053 -0.12619,-0.10584 -0.44343,-0.12058 -0.54122,-0.2352 -0.20745,-0.24313 -0.11473,-0.53368 -0.17215,-0.80054 -0.11473,-0.53368 -0.22955,-1.06737 -0.34432,-1.60106 -0.11473,-0.53368 -0.22953,-1.06737 -0.34431,-1.60106 -0.0574,-0.26684 -0.27072,-0.53737 -0.17216,-0.80054 0.0464,-0.12405 0.34864,-0.17931 0.42644,-0.29849 0.055,-0.0843 -0.0382,-0.1779 -0.0574,-0.26684 -0.0382,-0.1779 -0.0765,-0.3558 -0.11473,-0.53369 -0.0778,-0.36161 -0.47049,-1.68437 -0.4017,-1.86792 0.0464,-0.12405 0.2843,-0.19899 0.42646,-0.29849 0.10382,-0.27739 0.27098,-0.54982 0.31167,-0.83218 0.0247,-0.1715 -0.37827,-1.19429 -0.28693,-1.33423 0.0778,-0.11918 0.34865,-0.17931 0.42645,-0.29849 0.11596,-0.17767 -0.34552,-0.88972 -0.22953,-1.06738 0.0778,-0.11918 0.34864,-0.17932 0.42644,-0.2985 0.055,-0.0843 -0.0902,-0.17913 -0.0574,-0.26684 0.0735,-0.19614 0.3231,-0.36666 0.36908,-0.56534 0.0445,-0.1925 -0.32354,-1.50445 -0.34432,-1.60106 -0.0191,-0.0889 -0.0902,-0.17913 -0.0574,-0.26685 0.0735,-0.19614 0.32309,-0.36666 0.36905,-0.56534 0.0617,-0.26656 -0.11473,-0.53369 -0.17215,-0.80053 -0.24868,-1.15633 -0.49735,-2.31265 -0.74601,-3.46897 -0.0765,-0.35581 -0.15304,-0.7116 -0.22954,-1.06738 -0.0191,-0.0889 -0.0382,-0.17791 -0.0574,-0.26686 -0.0191,-0.0889 -0.11241,-0.18256 -0.0574,-0.26684 0.0778,-0.11918 0.34864,-0.17931 0.42644,-0.29849 0.1101,-0.16856 -0.22481,-0.36515 -0.11473,-0.53369 0.0778,-0.11919 0.34864,-0.17931 0.42646,-0.2985 0.12742,-0.19525 -0.43662,-1.22944 -0.28692,-1.33422 0.10054,-0.0703 0.38332,0.0388 0.48382,-0.0317 0.10054,-0.0703 -0.0382,-0.17789 -0.0574,-0.26684 -0.0191,-0.0889 -0.0382,-0.17789 -0.0574,-0.26685 -0.0191,-0.0889 0.10382,-0.27739 -0.0574,-0.26684 -0.16128,0.0106 0.15792,0.19648 0.0574,0.26684 -0.10054,0.0704 -0.33688,-0.007 -0.48384,0.0317 -0.32859,0.0853 -0.60685,0.22009 -0.91028,0.33014 -0.30342,0.11005 -0.68553,0.17282 -0.9103,0.33013 -0.22476,0.15733 -0.1443,0.40803 -0.36905,0.56534 -0.2897,0.20278 -1.02091,-0.20989 -1.39413,0.3618 -0.11009,0.16855 0.2248,0.36514 0.11473,0.53369 -0.0778,0.11918 -0.28429,0.19899 -0.42644,0.2985 -0.28429,0.19899 -0.52043,0.42216 -0.85291,0.59698 -0.26283,0.1382 -0.68552,0.17283 -0.91028,0.33014 -0.36241,0.25367 -0.43309,0.61017 -0.79551,0.86384 -0.10055,0.0704 -0.38333,-0.0388 -0.48384,0.0317 -0.10055,0.0704 0.15793,0.19649 0.0574,0.26685 -0.10054,0.0704 -0.38332,-0.0388 -0.48384,0.0317 -0.22476,0.15731 -0.20461,0.38676 -0.36906,0.56533 -0.10396,0.11294 -0.34865,0.17932 -0.42645,0.2985 -0.055,0.0843 0.11241,0.18257 0.0574,0.26684 -0.0778,0.11919 -0.34864,0.17931 -0.42644,0.2985 -0.055,0.0843 0.15794,0.19649 0.0574,0.26684 -0.20103,0.14072 -0.76664,-0.0774 -0.96768,0.0633 -0.10054,0.0704 0.15793,0.19649 0.0574,0.26684 -0.20103,0.14072 -0.76663,-0.0774 -0.96767,0.0633 -0.10054,0.0703 0.15794,0.19649 0.0574,0.26683 -0.20104,0.14072 -0.76665,-0.0774 -0.96768,0.0633 -0.10054,0.0703 0.15792,0.19649 0.0574,0.26685 -0.10054,0.0704 -0.3833,-0.0388 -0.48382,0.0317 -0.10055,0.0704 0.15792,0.19649 0.0574,0.26685 -0.10054,0.0704 -0.34812,-0.0176 -0.48382,0.0317 -0.19191,0.0696 -0.23456,0.22889 -0.42646,0.29849 -0.13574,0.0492 -0.38332,-0.0388 -0.48383,0.0317 -0.28428,0.19897 0.39904,0.33472 0.11473,0.53369 -0.10054,0.0704 -0.32254,0.021 -0.48382,0.0317 -0.16128,0.0106 -0.32256,0.0211 -0.48384,0.0317 -0.11732,0.008 -1.4341,0.10252 -1.4515,0.0949 -0.12756,-0.0554 0.0703,-0.21141 -0.0574,-0.26684 -0.12755,-0.0554 -0.35627,0.087 -0.48384,0.0317 -0.25514,-0.11087 0.14035,-0.42282 -0.11473,-0.53369 -0.12756,-0.0554 -0.35627,0.0871 -0.48384,0.0317 -0.12755,-0.0554 0.0318,-0.192 -0.0574,-0.26685 -0.1262,-0.10583 -0.44343,-0.12058 -0.54122,-0.2352 -0.14472,-0.16957 -0.32394,-1.50629 -0.4017,-1.86791 -0.0469,-0.21841 -0.39837,-1.51835 -0.34432,-1.60106 0.055,-0.0843 0.34814,0.0176 0.48384,-0.0317 0.19191,-0.0696 0.25167,-0.2163 0.42645,-0.29849 0.27633,-0.12996 0.63395,-0.2002 0.91028,-0.33015 0.7394,-0.34773 1.21373,-1.04735 1.64842,-1.46081 0.93577,-0.89011 -0.21539,0.45777 1.33673,-0.62865 0.78592,-0.55009 0.70509,-0.86528 1.16458,-1.42917 -0.0446,-0.54943 1.25534,-1.03398 1.64841,-1.46082 0.1471,-0.15971 -0.3158,-0.39297 -0.11473,-0.53369 0.10055,-0.0703 0.34813,0.0176 0.48384,-0.0317 0.19191,-0.0696 0.23454,-0.22891 0.42643,-0.2985 0.2714,-0.0984 0.76665,0.0774 0.96768,-0.0633 0.10055,-0.0703 -0.15792,-0.19648 -0.0574,-0.26684 0.10054,-0.0704 0.34812,0.0176 0.48382,-0.0317 0.19192,-0.0696 0.23456,-0.22889 0.42646,-0.29849 0.18046,-0.0655 1.36432,-0.034 1.45151,-0.095 0.10054,-0.0704 -0.15794,-0.19648 -0.0574,-0.26684 0.20104,-0.14072 0.76665,0.0774 0.96768,-0.0633 0.10054,-0.0704 -0.15792,-0.19649 -0.0574,-0.26685 1.29022,-0.0844 -0.14216,0.0995 0.42644,-0.29849 0.88233,-0.6176 0.14228,0.84625 0.91029,-0.33014 0.055,-0.0843 -0.15793,-0.1965 -0.0574,-0.26685 0.20104,-0.14071 0.76663,0.0774 0.96765,-0.0633 0.20104,-0.14069 -0.22478,-0.36512 -0.11473,-0.53367 0.0952,-0.14601 1.9876,-1.39123 2.13225,-1.49248 0.2843,-0.19899 0.56859,-0.39799 0.8529,-0.59698 0.14215,-0.0995 0.34864,-0.17931 0.42646,-0.29849 0.055,-0.0843 -0.15794,-0.1965 -0.0574,-0.26686 0.10054,-0.0703 0.38332,0.0388 0.48382,-0.0317 0.10055,-0.0703 -0.0382,-0.17789 -0.0574,-0.26685 0.2843,-0.19899 0.50336,-0.4326 0.8529,-0.59699 0.12347,-0.0581 0.38332,0.0388 0.48383,-0.0317 0.20103,-0.14069 -0.31579,-0.39297 -0.11473,-0.53367 0.10054,-0.0704 0.3833,0.0388 0.48382,-0.0317 0.10055,-0.0704 -0.15792,-0.19648 -0.0574,-0.26684 0.10054,-0.0704 0.38332,0.0388 0.48382,-0.0317 0.10055,-0.0704 -0.15792,-0.19649 -0.0574,-0.26685 0.10054,-0.0704 0.38332,0.0388 0.48384,-0.0317 0.10054,-0.0704 -0.15793,-0.19649 -0.0574,-0.26684 0.10055,-0.0704 0.38331,0.0388 0.48383,-0.0317 0.10054,-0.0704 -0.15792,-0.19649 -0.0574,-0.26685 0.10055,-0.0704 0.38331,0.0388 0.48383,-0.0317 0.10054,-0.0704 -0.11241,-0.18257 -0.0574,-0.26684 0.0778,-0.11918 0.34864,-0.17931 0.42646,-0.2985 0.055,-0.0843 -0.15794,-0.19649 -0.0574,-0.26684 0.10055,-0.0704 0.32255,-0.021 0.48384,-0.0317 0.16128,-0.0106 0.32255,-0.0211 0.48383,-0.0317 0.16128,-0.0106 0.35627,-0.087 0.48382,-0.0317 0.12756,0.0554 -0.0318,0.192 0.0574,0.26684 0.12619,0.10585 0.41504,0.12936 0.54123,0.2352 0.0892,0.0749 -0.0318,0.192 0.0574,0.26685 0.35916,0.30122 1.2645,0.40436 1.62367,0.70559 0.17847,0.14967 0.0765,0.35579 0.11473,0.53367 0.0191,0.0889 -0.0703,0.21142 0.0574,0.26685 0.12756,0.0554 0.39459,-0.10648 0.48382,-0.0317 0.26124,1.21476 -0.22479,0.0302 0.656,0.76889 0.0892,0.0749 -0.0703,0.21141 0.0574,0.26685 0.12756,0.0554 0.33103,-0.062 0.48383,-0.0317 0.58757,0.11666 0.79275,0.51275 1.13983,0.73724 1.13983,0.73722 -0.11473,-0.53369 1.62365,0.70558 0.31428,0.22403 0.30161,0.56387 0.656,0.76889 0.25059,0.14495 0.78942,0.0511 1.02505,0.20354 0.21076,0.13632 -0.0236,0.37159 0.11474,0.53369 0.0977,0.11462 0.41502,0.12935 0.54121,0.23519 0.0892,0.0749 -0.0702,0.21142 0.0574,0.26685 0.12755,0.0554 0.32256,-0.021 0.48382,-0.0317 0.18041,0.0784 0.39221,0.1388 0.54124,0.23519 0.99594,0.64417 0.28112,0.45449 1.25459,1.27092 1.36978,1.14883 -0.44405,-1.11921 1.13983,0.73724 0.069,0.0811 -0.0703,0.21141 0.0574,0.26684 0.12756,0.0554 0.35627,-0.0871 0.48384,-0.0317 0.25513,0.11086 -0.14036,0.42282 0.11473,0.53369 0.12756,0.0554 0.35626,-0.0872 0.48383,-0.0317 0.12756,0.0554 -0.0318,0.19199 0.0574,0.26684 0.1262,0.10585 0.41503,0.12936 0.54124,0.2352 0.0892,0.0749 -0.0703,0.21141 0.0574,0.26685 0.12756,0.0554 0.35626,-0.0871 0.48383,-0.0317 0.25514,0.11088 -0.14037,0.42282 0.11473,0.53369 0.12755,0.0554 0.35625,-0.0871 0.48382,-0.0317 0.12756,0.0554 -0.0318,0.192 0.0574,0.26685 0.12619,0.10583 0.41503,0.12935 0.54122,0.23519 0.0892,0.0749 -0.0703,0.21141 0.0574,0.26685 0.12756,0.0554 0.35627,-0.0872 0.48384,-0.0317 0.27061,0.1176 -0.0985,0.68294 0.17217,0.80053 0.12755,0.0554 0.35625,-0.0871 0.48382,-0.0317 0.12756,0.0554 -0.0703,0.21142 0.0574,0.26684 0.12755,0.0554 0.35625,-0.0872 0.48382,-0.0317 0.25514,0.11087 -0.14036,0.42281 0.11473,0.53369 0.12756,0.0554 0.35627,-0.0871 0.48384,-0.0317 0.17547,0.0762 0.097,1.1749 0.28693,1.33422 0.12619,0.10585 0.41503,0.12936 0.54122,0.23519 0.0892,0.0749 0.0383,0.17791 0.0574,0.26685 0.0574,0.26684 0.11473,0.5337 0.17215,0.80054 0.04,0.1856 0.3537,1.232 0.28693,1.33422 -0.0778,0.11918 -0.25167,0.2163 -0.42645,0.2985 -0.27633,0.12996 -0.63396,0.20018 -0.91028,0.33014 -0.17477,0.0822 -0.23455,0.22889 -0.42645,0.29849 -0.13574,0.0492 -0.34814,-0.0176 -0.48385,0.0317 -0.19189,0.0696 -0.23452,0.2289 -0.42645,0.29849 -0.0387,0.0141 -1.89164,0.13526 -1.93532,0.1266 -0.21611,-0.0429 -0.36082,-0.1568 -0.54122,-0.2352 -0.18042,-0.0784 -0.41503,-0.12935 -0.54124,-0.23519 -0.0892,-0.0749 3.3e-4,-0.18311 -0.0574,-0.26684 -0.18238,-0.2648 -0.47361,-0.5041 -0.65599,-0.76889 -0.0577,-0.0837 0.0703,-0.21142 -0.0574,-0.26685 -0.12755,-0.0554 -0.39459,0.10649 -0.48382,0.0317 -0.19364,-0.16239 -0.0351,-0.9829 -0.22955,-1.06738 -0.12755,-0.0554 -0.33103,0.062 -0.48382,0.0317 -0.96281,-0.19119 -1.01849,-0.9264 -1.73845,-1.23928 -0.28523,-0.12396 -0.73981,-0.0796 -1.02505,-0.20355 -0.28525,-0.12396 -0.36297,-0.34963 -0.5986,-0.50204 -0.34586,-0.2237 -1.35837,-0.4831 -1.62367,-0.70558 -0.0892,-0.0749 0.0702,-0.21141 -0.0574,-0.26685 -0.12755,-0.0554 -0.35625,0.0871 -0.48382,0.0317 -0.12756,-0.0554 0.0702,-0.21141 -0.0574,-0.26684 -0.12755,-0.0554 -0.35627,0.0871 -0.48384,0.0317 -0.12755,-0.0554 0.0703,-0.21142 -0.0574,-0.26685 -0.12756,-0.0554 -0.39459,0.10649 -0.48383,0.0317 -0.17847,-0.14969 -0.0765,-0.35581 -0.11473,-0.53369 -0.0191,-0.0889 0.0703,-0.21142 -0.0574,-0.26685 -0.12756,-0.0554 -0.35627,0.087 -0.48384,0.0317 -0.12756,-0.0554 0.0318,-0.19199 -0.0574,-0.26684 -0.12619,-0.10583 -0.36082,-0.15679 -0.54122,-0.23519 -0.1804,-0.0784 -0.31314,-0.25011 -0.54123,-0.2352 -0.32254,0.0211 0.22481,0.36514 0.11473,0.53369 -0.0778,0.11919 -0.37998,0.17444 -0.42644,0.29849 -0.0658,0.17545 0.0765,0.3558 0.11473,0.53369 0.0956,0.44475 0.19128,0.8895 0.28693,1.33422 0.0506,0.23527 0.22635,0.56643 0.17215,0.80054 -0.0651,0.28098 -0.27097,0.54983 -0.31167,0.83218 -0.0258,0.17858 0.0765,0.3558 0.11473,0.53369 0.0191,0.0889 0.11241,0.18258 0.0574,0.26684 -0.0778,0.1192 -0.34864,0.17932 -0.42646,0.2985 -0.112,0.17165 0.45638,1.42944 0.34432,1.60107 -0.0778,0.11919 -0.39736,0.17284 -0.42644,0.29849 -0.0139,0.06 0.37096,1.2056 0.28692,1.33423 -0.0778,0.11918 -0.28429,0.19899 -0.42644,0.29849 0.0382,0.1779 0.18048,0.35825 0.11473,0.53369 -0.0464,0.12406 -0.37998,0.17443 -0.42645,0.2985 -0.0657,0.17544 0.0765,0.35579 0.11473,0.53368 0.0574,0.26685 0.27071,0.53738 0.17216,0.80054 -0.0329,0.0878 -0.38334,-0.0388 -0.48384,0.0317 -0.11664,0.0817 0.32968,0.91404 0.22953,1.06738 -0.0778,0.11919 -0.34864,0.17931 -0.42645,0.2985 -0.11637,0.17833 0.40335,1.15589 0.28693,1.33422 -0.0778,0.11919 -0.34864,0.17931 -0.42645,0.29849 -0.14762,0.22614 0.31978,0.5744 0.17217,0.80054 -0.19837,0.30386 -0.53035,0.57589 -0.79553,0.86383 z"
         id="path4391"
         inkscape:connector-curvature="0" />
      <path
         style="fill:#82573c;fill-opacity:1;fill-rule:evenodd;stroke:none;stroke-width:1px;stroke-linecap:butt;stroke-linejoin:miter;stroke-opacity:1"
         d="m 611.60715,393.52292 7.5,10 -0.17857,-10.53572 z"
         id="path4327-0"
         inkscape:connector-curvature="0" />
    </g>
    <g
       inkscape:export-ydpi="149.79022"
       inkscape:export-xdpi="149.79022"
       transform="translate(-145,-10.714286)"
       id="g4393">
      <path
         sodipodi:nodetypes="ccccc"
         style="fill:#a06742;fill-opacity:1;fill-rule:evenodd;stroke:none;stroke-width:1px;stroke-linecap:butt;stroke-linejoin:miter;stroke-opacity:1"
         d="m 610.35715,390.57649 2.14285,40.35715 6.78572,0 -0.35715,-40.71429 z"
         id="path4395"
         inkscape:connector-curvature="0" />
      <path
         style="fill:#82573c;fill-opacity:1;fill-rule:evenodd;stroke:none;stroke-width:1px;stroke-linecap:butt;stroke-linejoin:miter;stroke-opacity:1"
         d="m 578.92857,350.57649 2.14286,44.28571 3.57143,0.71429 68.57143,-4.64286 -0.71429,-45.35714 -4.28571,0.35714 z"
         id="path4397"
         inkscape:connector-curvature="0" />
      <path
         style="fill:#a06742;fill-opacity:1;fill-rule:evenodd;stroke:none;stroke-width:1px;stroke-linecap:butt;stroke-linejoin:miter;stroke-opacity:1"
         d="m 577.30218,348.28588 1.24282,28.27404 6.46172,0.87325 -6.25937,1.94444 0.57514,14.87021 70.71067,-4.54569 -0.50507,-16.66751 -14.64721,1.01015 14.64721,-3.53553 -0.50508,-12.62691 -27.77919,2.52538 27.77919,-5.05076 0,-10.6066 z"
         id="path4399"
         inkscape:connector-curvature="0"
         sodipodi:nodetypes="cccccccccccccc" />
      <path
         style="fill:#972c2c;fill-opacity:0.77906979;fill-rule:evenodd;stroke:none;stroke-width:1px;stroke-linecap:butt;stroke-linejoin:miter;stroke-opacity:1"
         d="m 622.91225,363.57311 c 1.45424,-0.52944 2.90849,-1.05888 4.36273,-1.58833 0.11186,-0.0407 0.22372,-0.0815 0.33559,-0.12217 0.11187,-0.0407 0.22769,-0.17251 0.33559,-0.12218 0.10792,0.0503 0.0143,0.28529 0.12218,0.33559 0.10792,0.0503 0.22373,-0.0815 0.3356,-0.12218 0.22372,-0.0815 0.43464,-0.27156 0.67118,-0.24436 1.05782,0.12165 -0.8846,0.70213 0.45778,0.21341 0.33559,-0.12218 0.65198,-0.40734 1.00677,-0.36653 0.11826,0.0136 0.0143,0.2853 0.12219,0.3356 0.22889,0.1067 0.77789,-0.47324 1.00678,-0.36654 0.10792,0.0503 0.0143,0.2853 0.12218,0.33559 0.10792,0.0503 0.22373,-0.0815 0.3356,-0.12218 0.11185,-0.0407 0.22372,-0.0815 0.33559,-0.12217 0.89492,-0.32581 -0.1526,-0.0711 0.45777,0.21341 0.1101,0.0513 1.23223,-0.54003 1.34237,-0.48872 0.10793,0.0503 0.0358,0.25375 0.12218,0.33561 0.12227,0.11573 0.33551,0.0977 0.45778,0.21341 0.0864,0.0818 0.0143,0.28529 0.12218,0.33559 0.10792,0.0503 0.22769,-0.1725 0.33559,-0.12218 0.10793,0.0503 0.0143,0.28529 0.12218,0.33559 0.10792,0.0503 0.22769,-0.1725 0.33559,-0.12218 0.10793,0.0503 0.0143,0.28531 0.12218,0.3356 0.10793,0.0503 0.2277,-0.1725 0.33559,-0.12217 0.0147,0.007 0.33691,0.92539 0.36654,1.00678 0.0449,0.12324 0.49733,1.32394 0.48871,1.34237 -0.0436,0.0936 -0.89793,0.25157 -1.00677,0.36654 -0.11574,0.12227 -0.0815,0.3531 -0.21342,0.45777 -0.27973,0.22203 -0.67118,0.24436 -1.00679,0.36654 -0.67118,0.24435 -1.34237,0.48871 -2.01355,0.73307 -0.6712,0.24436 -1.34238,0.48871 -2.01357,0.73307 -0.33559,0.12218 -0.64977,0.35675 -1.00678,0.36654 -0.16829,0.005 -0.29052,-0.19418 -0.45777,-0.21342 -0.11826,-0.0136 -0.22374,0.0815 -0.33559,0.12218 -0.22374,0.0815 -0.44746,0.16291 -0.6712,0.24436 -0.45477,0.16557 -2.10015,0.84846 -2.34915,0.85525 -0.16829,0.005 -0.30518,-0.14228 -0.45778,-0.21342 -0.37632,0.0103 -0.75682,-0.026 -1.12896,0.0309 -0.22601,0.0346 -1.4816,0.63348 -1.67797,0.6109 -0.16726,-0.0192 -0.29051,-0.19418 -0.45777,-0.21341 -0.24933,-0.0287 -1.09306,0.51738 -1.34238,0.48871 -0.16725,-0.0192 -0.29052,-0.19418 -0.45777,-0.21341 -0.11825,-0.0136 -0.21661,0.11887 -0.3356,0.12218 -0.2661,0.007 -0.52861,-0.11893 -0.79336,-0.0913 -0.25652,0.0269 -1.89205,0.68884 -2.01357,0.73308 -0.11187,0.0407 -0.2166,0.11887 -0.33559,0.12218 -0.26611,0.007 -0.52862,-0.11892 -0.79337,-0.0912 -0.3552,0.0372 -0.67118,0.24436 -1.00678,0.36654 -1.45424,0.52944 -2.90848,1.05888 -4.36272,1.58832 -0.44746,0.16291 -0.89492,0.32581 -1.34237,0.48872 -0.11187,0.0407 -0.22374,0.0815 -0.33561,0.12218 -0.11185,0.0407 -0.21733,0.13574 -0.33559,0.12218 -0.16725,-0.0192 -0.29051,-0.19418 -0.45777,-0.21342 -0.23653,-0.0272 -0.43465,0.27156 -0.67119,0.24436 -0.16725,-0.0192 -0.29052,-0.19418 -0.45777,-0.21342 -0.274,-0.0315 -1.51728,0.68581 -1.67798,0.61089 -0.10792,-0.0503 -0.0143,-0.28529 -0.12217,-0.33559 -0.10793,-0.0503 -0.22373,0.0815 -0.3356,0.12218 -0.11186,0.0407 -0.22372,0.0815 -0.33559,0.12218 -0.11186,0.0407 -0.37632,0.0103 -0.33559,0.12218 0.0407,0.11186 0.22769,-0.1725 0.33559,-0.12218 0.10793,0.0503 0.0482,0.24234 0.12218,0.33559 0.16551,0.2085 0.38663,0.36601 0.57995,0.54901 0.19332,0.183 0.33868,0.43653 0.57995,0.54902 0.24128,0.11247 0.55211,-0.0213 0.79337,0.0912 0.31098,0.14497 -0.10015,0.79234 0.70213,0.88461 0.23654,0.0272 0.43465,-0.27156 0.67119,-0.24436 0.16726,0.0192 0.30518,0.14227 0.45777,0.21341 0.30519,0.14227 0.63356,0.24282 0.91555,0.42683 0.22294,0.14546 0.33868,0.43653 0.57995,0.54901 0.38903,0.18136 0.86211,0.12328 1.25114,0.30465 0.10793,0.0503 0.0143,0.2853 0.12218,0.3356 0.10792,0.0503 0.22769,-0.1725 0.33559,-0.12218 0.10793,0.0503 0.0143,0.28529 0.12218,0.33559 0.24127,0.11248 0.53473,0.0282 0.79337,0.0912 0.16358,0.0398 0.29052,0.19418 0.45777,0.21341 0.11826,0.0136 0.21734,-0.13574 0.33559,-0.12217 0.16727,0.0192 0.29052,0.19418 0.45778,0.21341 0.11826,0.0136 0.22769,-0.1725 0.33559,-0.12218 0.2158,0.1006 0.0286,0.57059 0.24436,0.67119 0.10793,0.0503 0.22769,-0.1725 0.33559,-0.12218 0.2158,0.10061 0.0286,0.57058 0.24436,0.67119 0.10792,0.0503 0.22769,-0.17251 0.33559,-0.12218 0.2158,0.1006 0.0286,0.57058 0.24436,0.67119 0.10792,0.0503 0.22769,-0.1725 0.3356,-0.12218 0.10792,0.0503 0.0143,0.28529 0.12218,0.33559 0.10792,0.0503 0.22768,-0.1725 0.33559,-0.12218 0.10792,0.0503 0.0358,0.25374 0.12218,0.33559 0.12227,0.11575 0.33551,0.0977 0.45777,0.21343 0.0864,0.0819 0.0143,0.28529 0.12218,0.33559 0.30515,0.14226 0.36604,-0.38662 0.67119,-0.24436 0.10792,0.0503 0.0814,0.22372 0.12218,0.33559 0.0407,0.11187 0.0815,0.22373 0.12218,0.3356 0.0296,0.0814 0.37341,0.99205 0.36653,1.00678 -0.0503,0.10792 -0.28529,0.0143 -0.33559,0.12217 -0.0503,0.10793 0.1725,0.2277 0.12218,0.3356 -0.1006,0.2158 -0.57059,0.0286 -0.67119,0.24436 -0.0503,0.10793 0.1725,0.22769 0.12218,0.33559 -0.0503,0.10793 -0.25374,0.0358 -0.33559,0.12218 -0.11575,0.12228 -0.0816,0.35311 -0.21343,0.45777 -0.19509,0.15489 -1.89438,0.68969 -2.34916,0.85526 -0.27468,0.1 -1.89747,0.74646 -2.01355,0.73307 -0.11826,-0.0136 -0.0358,-0.25374 -0.12218,-0.3356 -0.12227,-0.11574 -0.3221,-0.11373 -0.45778,-0.21341 -0.21452,-0.15761 -0.36543,-0.3914 -0.57995,-0.54901 -0.57401,-0.42173 -1.55879,-0.54719 -2.16668,-0.73148 -1.30867,-0.39673 0.6284,0.0143 -1.03773,-0.76243 -0.84363,-0.39331 -1.23783,-0.23968 -2.0445,-0.39589 -0.70333,0.19913 -1.54848,-0.58094 -2.16669,-0.73148 -0.23133,-0.0563 -0.45539,0.34496 -0.67119,0.24436 -0.10792,-0.0503 -0.0358,-0.25374 -0.12217,-0.33559 -0.12228,-0.11575 -0.33551,-0.0977 -0.45778,-0.21341 -0.1729,-0.16369 -0.0286,-0.57059 -0.24436,-0.67119 -0.10793,-0.0503 -0.22769,0.17249 -0.33559,0.12217 -0.10793,-0.0503 -0.0358,-0.25373 -0.12218,-0.33559 -0.12227,-0.11574 -0.33551,-0.0977 -0.45777,-0.21342 -0.11497,-0.10884 -0.27296,-0.96314 -0.36654,-1.00678 -0.10792,-0.0503 -0.22768,0.1725 -0.33559,0.12218 -0.2158,-0.1006 -0.0286,-0.57058 -0.24436,-0.67119 -0.10792,-0.0503 -0.22769,0.1725 -0.3356,0.12218 -0.32581,-0.89492 0.1526,0.0711 -0.45777,-0.21341 -0.94714,-0.44157 1.07096,-0.35915 -0.57995,-0.54902 -0.11825,-0.0136 -0.22769,0.17251 -0.3356,0.12218 -0.21579,-0.1006 -0.0286,-0.57058 -0.24435,-0.67118 -0.21579,-0.10061 -0.43465,0.27155 -0.67119,0.24436 -0.20489,-0.0235 -2.13358,-0.99469 -2.28887,-1.06708 -0.30517,-0.14228 -0.61036,-0.28456 -0.91554,-0.42683 -0.15259,-0.0711 -0.29052,-0.19419 -0.45777,-0.21342 -0.11825,-0.0136 -0.22769,0.1725 -0.3356,0.12218 -0.10792,-0.0503 -0.0143,-0.2853 -0.12218,-0.33559 -0.10792,-0.0503 -0.22372,0.0814 -0.33559,0.12218 -0.30518,-0.14229 -0.64419,-0.22747 -0.91555,-0.42684 -0.0959,-0.0704 -0.0143,-0.28529 -0.12218,-0.33559 -0.21579,-0.10061 -0.45538,0.34496 -0.67118,0.24436 -0.10792,-0.0503 -0.0143,-0.2853 -0.12218,-0.33559 -0.10792,-0.0503 -0.22768,0.17249 -0.33559,0.12217 -0.10792,-0.0503 -0.0143,-0.2853 -0.12218,-0.33559 -0.10792,-0.0503 -0.22769,0.1725 -0.3356,0.12218 -0.10792,-0.0503 -0.0143,-0.2853 -0.12218,-0.3356 -0.10792,-0.0503 -0.22768,0.1725 -0.33559,0.12218 -0.10792,-0.0503 -0.0143,-0.2853 -0.12218,-0.33559 -0.10792,-0.0503 -0.22768,0.1725 -0.33559,0.12218 -0.10792,-0.0503 -0.0143,-0.2853 -0.12218,-0.33559 -0.10792,-0.0503 -0.21734,0.13574 -0.3356,0.12218 -0.16725,-0.0192 -0.29051,-0.19419 -0.45777,-0.21343 -0.11826,-0.0136 -0.22769,0.1725 -0.33559,0.12218 -0.10793,-0.0503 -0.0815,-0.22372 -0.12218,-0.33559 -0.0407,-0.11187 -0.0815,-0.22372 -0.12218,-0.33559 -0.0407,-0.11187 -0.1725,-0.2277 -0.12218,-0.33559 0.0503,-0.10793 0.25374,-0.0358 0.3356,-0.12218 0.11574,-0.12227 0.0977,-0.33552 0.21341,-0.45778 0.0819,-0.0864 0.25374,-0.0358 0.3356,-0.12218 0.3294,-0.34797 0.31083,-1.02534 0.64024,-1.37332 0.16368,-0.17291 0.44746,-0.16291 0.67119,-0.24436 0.11186,-0.0407 0.2853,-0.0143 0.33559,-0.12217 0.0503,-0.10793 -0.20401,-0.24914 -0.12218,-0.3356 1.52772,-0.55619 0.0768,0.15123 0.88461,-0.70212 0.0818,-0.0864 0.2853,-0.0143 0.3356,-0.12219 0.0503,-0.10792 -0.13575,-0.21734 -0.12218,-0.33559 0.0523,-0.45476 0.53026,-0.72174 0.76241,-1.03772 0.76243,-1.03773 -0.67118,0.24435 0.64025,-1.37332 0.23708,-0.29244 0.67888,-0.38686 0.88461,-0.70213 0.14547,-0.22294 -0.0664,-0.57885 0.0912,-0.79337 0.14097,-0.19188 0.4847,-0.0963 0.67119,-0.24436 0.13188,-0.10463 0.0977,-0.33551 0.21341,-0.45777 0.0819,-0.0864 0.28531,-0.0143 0.3356,-0.12218 0.0503,-0.10792 -0.0815,-0.22373 -0.12217,-0.33559 0.0711,-0.15259 0.11373,-0.3221 0.21341,-0.45778 0.66618,-0.90673 0.54079,-0.33895 1.43361,-1.28207 1.25631,-1.32711 -1.37342,0.65754 0.76242,-1.03773 0.0933,-0.074 0.28531,-0.0143 0.33559,-0.12218 0.0503,-0.10793 -0.1725,-0.22769 -0.12217,-0.33559 0.1006,-0.2158 0.57058,-0.0286 0.67119,-0.24436 0.0503,-0.10793 -0.1725,-0.22769 -0.12218,-0.33559 0.0503,-0.10793 0.25374,-0.0358 0.33559,-0.12218 0.11575,-0.12227 0.0977,-0.33551 0.21342,-0.45778 0.0819,-0.0864 0.2853,-0.0143 0.33559,-0.12218 0.0503,-0.10793 -0.1725,-0.22769 -0.12218,-0.33559 0.10061,-0.2158 0.57059,-0.0286 0.67119,-0.24436 0.0503,-0.10792 -0.1725,-0.22768 -0.12218,-0.33559 0.0503,-0.10792 0.25374,-0.0358 0.3356,-0.12218 0.11573,-0.12227 0.0977,-0.33551 0.21341,-0.45777 0.0819,-0.0864 0.2853,-0.0143 0.3356,-0.12218 0.0503,-0.10792 -0.17251,-0.22769 -0.12219,-0.3356 0.10671,-0.22888 0.90008,-0.13765 1.00679,-0.36654 0.0503,-0.10792 -0.1725,-0.22768 -0.12218,-0.33559 0.0503,-0.10792 0.2853,-0.0143 0.33559,-0.12217 0.0503,-0.10793 -0.1725,-0.22769 -0.12218,-0.3356 0.10061,-0.21579 0.57059,-0.0286 0.6712,-0.24435 0.0503,-0.10793 -0.17251,-0.2277 -0.12219,-0.33561 0.0692,-0.1484 1.50375,-0.42684 1.67797,-0.61089 0.11574,-0.12227 0.0977,-0.33551 0.21342,-0.45777 0.0819,-0.0864 0.22373,-0.0814 0.33559,-0.12218 0.3356,-0.12218 0.6712,-0.24436 1.00679,-0.36654 0.23342,-0.085 1.53451,-0.62741 1.67796,-0.61089 0.16727,0.0192 0.32211,0.11373 0.45778,0.21341 0.21453,0.15761 0.36543,0.39141 0.57995,0.54902 0.13569,0.0997 0.33551,0.0977 0.45777,0.21341 0.0864,0.0819 0.0358,0.25375 0.12218,0.3356 0.12227,0.11574 0.33551,0.0977 0.45777,0.21341 0.0247,0.0234 0.49258,1.30857 0.48872,1.34238 -0.0193,0.16725 -0.14228,0.30517 -0.21342,0.45777 -0.0711,0.15259 -0.0977,0.33551 -0.21341,0.45778 -0.0819,0.0864 -0.23695,0.0555 -0.33559,0.12218 -0.31196,0.21073 -0.57266,0.49138 -0.8846,0.70212 -0.0987,0.0667 -0.28531,0.0143 -0.3356,0.12218 -0.0503,0.10793 0.20402,0.24914 0.12217,0.3356 -0.17758,0.1876 -1.26571,0.32427 -1.34237,0.48871 -0.0503,0.10793 0.13574,0.21734 0.12218,0.33559 -0.0857,0.74519 -1.02754,1.00872 -1.31143,1.61768 -0.11248,0.24126 0.0212,0.5521 -0.0912,0.79337 -0.11247,0.24126 -0.3914,0.36543 -0.54901,0.57995 -0.23135,0.31488 -0.39694,1.1163 -0.64025,1.37332 -0.0819,0.0864 -0.28529,0.0143 -0.33559,0.12218 -0.0503,0.10792 0.1725,0.22768 0.12218,0.33559 -0.0503,0.10792 -0.2853,0.0143 -0.33559,0.12218 -0.0503,0.10792 0.1725,0.22769 0.12218,0.3356 -0.0503,0.10792 -0.2853,0.0143 -0.3356,0.12218 -0.0503,0.10792 0.20402,0.24913 0.12218,0.33559 -0.16369,0.17291 -0.44746,0.1629 -0.67119,0.24435 -0.11186,0.0407 -0.2853,0.0143 -0.3356,0.12219 -0.0503,0.10792 0.1725,0.22768 0.12218,0.33559 -0.0503,0.10792 -0.25373,0.0358 -0.33559,0.12217 -0.11573,0.12228 -0.14227,0.30519 -0.21341,0.45777 -0.0711,0.1526 -0.27101,0.29958 -0.21341,0.45778 0.0815,0.22373 0.43464,-0.27155 0.67118,-0.24435 0.16726,0.0192 0.28948,0.21802 0.45777,0.21341 0.23801,-0.007 0.44747,-0.16291 0.67119,-0.24436 0.55933,-0.20363 1.11865,-0.40726 1.67797,-0.61089 0.29588,-0.10772 0.6948,-0.33394 1.00678,-0.36654 0.37442,-0.0392 0.75683,0.026 1.12896,-0.0309 0.23536,-0.036 0.44746,-0.16291 0.67119,-0.24436 0.11187,-0.0407 0.21734,-0.13574 0.33559,-0.12218 0.16727,0.0192 0.29052,0.19418 0.45778,0.21342 0.24088,0.0277 1.77269,-0.76078 2.01356,-0.73307 0.16727,0.0192 0.29033,0.23091 0.45777,0.21341 0.0799,-0.008 1.49747,-0.6317 1.67798,-0.61089 0.16725,0.0192 0.30517,0.14227 0.45777,0.21341 0.22373,-0.0815 0.43318,-0.23784 0.67119,-0.24436 0.16828,-0.005 0.28947,0.21803 0.45777,0.21342 0.23801,-0.007 0.44746,-0.16291 0.67118,-0.24436 0.3356,-0.12218 0.64979,-0.35675 1.00679,-0.36654 0.11902,-0.003 0.0143,0.28531 0.12218,0.3356 0.12523,0.0584 1.12717,-0.51349 1.34237,-0.48871 0.16727,0.0192 0.29052,0.19418 0.45778,0.21341 0.25025,0.0288 1.42771,-0.63968 1.67797,-0.61089 0.16726,0.0192 0.29051,0.19418 0.45777,0.21341 0.31735,0.0365 0.68944,-0.40303 1.00678,-0.36654 0.42642,0.049 0.8341,0.2031 1.25114,0.30466 z"
         id="path4401"
         inkscape:connector-curvature="0" />
      <path
         style="fill:#82573c;fill-opacity:1;fill-rule:evenodd;stroke:none;stroke-width:1px;stroke-linecap:butt;stroke-linejoin:miter;stroke-opacity:1"
         d="m 611.60714,393.88007 7.5,10 -0.17857,-10.53572 z"
         id="path4327-7"
         inkscape:connector-curvature="0" />
    </g>
    <rect
       style="opacity:1;fill:url(#linearGradient4455);fill-opacity:1;stroke:none;stroke-width:1;stroke-linecap:round;stroke-linejoin:round;stroke-miterlimit:4;stroke-dasharray:none;stroke-dashoffset:0;stroke-opacity:1"
       id="rect4424"
       width="62.142857"
       height="87.85714"
       x="273.57629"
       y="532.70142" />
    <rect
       style="opacity:1;fill:url(#linearGradient4455-1);fill-opacity:1;stroke:none;stroke-width:1;stroke-linecap:round;stroke-linejoin:round;stroke-miterlimit:4;stroke-dasharray:none;stroke-dashoffset:0;stroke-opacity:1"
       id="rect4424-1"
       width="65.631348"
       height="5.4221272"
       x="271.40692"
       y="528.74744" />
  </g>
</svg>
