<?xml version="1.0" encoding="UTF-8" standalone="no"?>
<!-- Created with Inkscape (http://www.inkscape.org/) -->

<svg
   xmlns:dc="http://purl.org/dc/elements/1.1/"
   xmlns:cc="http://creativecommons.org/ns#"
   xmlns:rdf="http://www.w3.org/1999/02/22-rdf-syntax-ns#"
   xmlns:svg="http://www.w3.org/2000/svg"
   xmlns="http://www.w3.org/2000/svg"
   xmlns:sodipodi="http://sodipodi.sourceforge.net/DTD/sodipodi-0.dtd"
   xmlns:inkscape="http://www.inkscape.org/namespaces/inkscape"
   width="210mm"
   height="297mm"
   viewBox="0 0 744.09448819 1052.3622047"
   id="svg2"
   version="1.1"
   inkscape:version="0.91 r13725"
   sodipodi:docname="environment.svg">
  <defs
     id="defs4" />
  <sodipodi:namedview
     id="base"
     pagecolor="#ffffff"
     bordercolor="#666666"
     borderopacity="1.0"
     inkscape:pageopacity="0.0"
     inkscape:pageshadow="2"
     inkscape:zoom="2.8"
     inkscape:cx="692.65674"
     inkscape:cy="646.42473"
     inkscape:document-units="px"
     inkscape:current-layer="layer1"
     showgrid="false"
     showguides="false"
     inkscape:window-width="1280"
     inkscape:window-height="748"
     inkscape:window-x="-8"
     inkscape:window-y="-8"
     inkscape:window-maximized="1" />
  <metadata
     id="metadata7">
    <rdf:RDF>
      <cc:Work
         rdf:about="">
        <dc:format>image/svg+xml</dc:format>
        <dc:type
           rdf:resource="http://purl.org/dc/dcmitype/StillImage" />
        <dc:title></dc:title>
      </cc:Work>
    </rdf:RDF>
  </metadata>
  <g
     inkscape:label="Layer 1"
     inkscape:groupmode="layer"
     id="layer1">
    <g
       id="g4146"
       inkscape:export-xdpi="96.734322"
       inkscape:export-ydpi="96.734322">
      <path
         inkscape:connector-curvature="0"
         id="path4136"
         d="m 81.428573,210.93363 -35.000001,-10 -12.142857,-35.71429 17.857142,-92.142851 47.142856,-46.428571 14.999997,5 17.14286,65.714285 6.42857,83.571427 -25,30.71428 z"
         style="fill:#916f6f;fill-rule:evenodd;stroke:#000000;stroke-width:1px;stroke-linecap:butt;stroke-linejoin:miter;stroke-opacity:0.19607843" />
      <path
         inkscape:connector-curvature="0"
         id="path4138"
         d="m 35.357143,165.57649 20,24.28571 26.428571,5.35715 31.071426,-5.71429 13.21429,-25.71429 7.14286,-39.28571 3.92857,56.42857 -24.28572,30 -31.785711,0 -35,-10.35714 z"
         style="fill:#726072;fill-rule:evenodd;stroke:none;stroke-width:1px;stroke-linecap:butt;stroke-linejoin:miter;stroke-opacity:1;fill-opacity:1" />
      <path
         sodipodi:nodetypes="ccccccccccc"
         inkscape:connector-curvature="0"
         id="path4140"
         d="M 38.214286,146.64791 60,78.076489 83.704407,54.979884 106.44688,51.666706 93.12286,46.544687 l 8.66285,-9.182484 13.57144,-1.071428 -1.42858,-4.642858 -14.285713,-5.357143 -47.678571,47.142858 z"
         style="fill:#af9d8e;fill-opacity:1;fill-rule:evenodd;stroke:none;stroke-width:1px;stroke-linecap:butt;stroke-linejoin:miter;stroke-opacity:1" />
      <path
         inkscape:connector-curvature="0"
         id="path4142"
         d="M 45.714286,106.64792 53.928572,73.790774 100,28.076488 104.28571,27.897917 99.464286,26.290774 51.607143,73.25506 Z"
         style="fill:#dcd7a9;fill-rule:evenodd;stroke:none;stroke-width:1px;stroke-linecap:butt;stroke-linejoin:miter;stroke-opacity:1;fill-opacity:1" />
      <path
         inkscape:connector-curvature="0"
         id="path4144"
         d="m 70.45814,171.00411 25.001276,3.03046 14.899754,-5.05077 15.15228,-38.63833 -1.26269,-34.345189 -5.05076,31.062189 -15.15229,32.82996 -16.920053,7.32361 z"
         style="fill:#726072;fill-rule:evenodd;stroke:none;stroke-width:1px;stroke-linecap:butt;stroke-linejoin:miter;stroke-opacity:1;fill-opacity:1" />
    </g>
    <g
       id="g4161"
       inkscape:export-xdpi="83.598946"
       inkscape:export-ydpi="83.598946">
      <path
         sodipodi:nodetypes="cccccccccc"
         inkscape:connector-curvature="0"
         id="path4153"
         d="m 191.54946,208.15659 -25.84829,-17.43257 -7.21347,-23.44379 7.8146,-20.43819 30.65726,-9.61796 69.12914,12.02245 20.43818,19.23594 -15.6292,29.45503 -46.28646,9.01684 z"
         style="fill:#916f6f;fill-opacity:1;fill-rule:evenodd;stroke:#000000;stroke-width:1;stroke-linecap:butt;stroke-linejoin:miter;stroke-miterlimit:4;stroke-dasharray:none;stroke-opacity:0.19607843" />
      <path
         sodipodi:nodetypes="cccccccccc"
         inkscape:connector-curvature="0"
         id="path4155"
         d="m 159.28571,167.00506 15,-14.28571 23.21429,-7.5 42.5,12.85714 20,-4.28572 16.51786,5.26786 -10.44643,-9.55357 -69.28572,-12.14286 -30.35714,9.64286 z"
         style="fill:#af9d8e;fill-opacity:1;fill-rule:evenodd;stroke:none;stroke-width:1px;stroke-linecap:butt;stroke-linejoin:miter;stroke-opacity:1" />
      <path
         inkscape:connector-curvature="0"
         id="path4157"
         d="m 161.78571,177.00506 26.07143,17.5 21.78572,3.21429 22.85714,-4.64286 8.57143,3.57143 22.5,-11.78572 13.57143,-17.85714 8.21428,1.42857 -15,29.28572 -45.71428,8.92857 -32.85715,1.78571 -26.07142,-18.21428 z"
         style="fill:#726072;fill-rule:evenodd;stroke:none;stroke-width:1px;stroke-linecap:butt;stroke-linejoin:miter;stroke-opacity:1;fill-opacity:1" />
      <path
         sodipodi:nodetypes="cccccccc"
         inkscape:connector-curvature="0"
         id="path4159"
         d="m 165.90223,146.98235 31.83513,-7.29297 36.87057,6.56599 3.28299,3.03046 4.29315,-1.51523 24.1697,1.55855 -69.6572,-12.18047 z"
         style="fill:#dcd7a9;fill-opacity:1;fill-rule:evenodd;stroke:none;stroke-width:1px;stroke-linecap:butt;stroke-linejoin:miter;stroke-opacity:1" />
    </g>
    <g
       inkscape:export-ydpi="107.34446"
       inkscape:export-xdpi="107.34446"
       transform="translate(-10.101525,-1.0101525)"
       id="g4190">
      <path
         sodipodi:nodetypes="cccccccccccccccccc"
         inkscape:connector-curvature="0"
         id="path4167"
         d="M 171.42857,35.219347 155,48.790775 l 5,22.857143 72.14286,8.571429 90,-7.857144 69.28571,-2.857142 30.71428,-3.571429 29.28572,-0.714285 35,-8.571429 2.85714,-12.857143 -6.42857,-11.428571 -46.42857,-11.428572 -75,5 L 340,19.505061 272.85714,30.933632 235,26.647918 192.85714,35.933632 Z"
         style="fill:#916f6f;fill-opacity:1;fill-rule:evenodd;stroke:#000000;stroke-width:1px;stroke-linecap:butt;stroke-linejoin:miter;stroke-opacity:0.19607843" />
      <path
         sodipodi:nodetypes="cccccccccccccccccccc"
         inkscape:connector-curvature="0"
         id="path4169"
         d="m 155.56349,50.290879 10.10153,13.63706 65.15484,5.555839 40.4061,-14.647212 13.13198,10.101525 87.3782,-7.576144 13.13198,6.060915 29.29442,-8.586296 27.27412,-5.555839 8.5863,9.596449 27.27412,-7.576144 11.49048,-8.081221 -2.39911,13.131983 -34.85026,8.965104 -31.81981,0.631346 -33.84011,4.04061 -90.40865,4.545686 -63.13453,6.565992 -71.72084,-9.091373 z"
         style="fill:#726072;fill-opacity:1;fill-rule:evenodd;stroke:none;stroke-width:1px;stroke-linecap:butt;stroke-linejoin:miter;stroke-opacity:1" />
      <path
         sodipodi:nodetypes="ccccc"
         inkscape:connector-curvature="0"
         id="path4171"
         d="M 271.73103,54.836566 307.82704,51.59538 367.19045,36.65382 306.07623,57.361947 Z"
         style="fill:#726072;fill-opacity:1;fill-rule:evenodd;stroke:none;stroke-width:1px;stroke-linecap:butt;stroke-linejoin:miter;stroke-opacity:1" />
      <path
         sodipodi:nodetypes="cccccc"
         inkscape:connector-curvature="0"
         id="path4173"
         d="m 394.46457,40.69443 40.6407,1.377808 19.46338,-8.953952 -12.62691,15.152288 -16.23423,-1.565992 z"
         style="fill:#726072;fill-opacity:1;fill-rule:evenodd;stroke:none;stroke-width:1px;stroke-linecap:butt;stroke-linejoin:miter;stroke-opacity:1" />
      <path
         sodipodi:nodetypes="cccccccccccccccccc"
         inkscape:connector-curvature="0"
         id="path4175"
         d="m 155.05842,48.77565 20.20305,-7.071067 20.20305,0.505076 40.4061,-7.071068 62.12438,5.555839 -7.07107,-6.565992 50.00255,-8.08122 32.32489,7.576144 44.44671,-6.565991 33.63616,-2.377448 -14.97897,-4.071248 -74.634,5.198696 -21.3305,-6.535354 -67.41499,11.795326 -37.61024,-5.020125 -42.61581,9.848988 -22.03395,-0.757615 z"
         style="fill:#af9d8e;fill-opacity:1;fill-rule:evenodd;stroke:none;stroke-width:1px;stroke-linecap:butt;stroke-linejoin:miter;stroke-opacity:1" />
      <path
         inkscape:connector-curvature="0"
         id="path4177"
         d="m 162.67857,42.362203 10.35714,-5.178572 21.42858,0.714286 41.60714,-9.464286 36.78571,2.321429 -37.5,-4.821429 -42.67857,9.821429 -21.60714,-0.714286 z"
         style="fill:#dcd7a9;fill-opacity:1;fill-rule:evenodd;stroke:none;stroke-width:1px;stroke-linecap:butt;stroke-linejoin:miter;stroke-opacity:1" />
      <path
         sodipodi:nodetypes="ccccccc"
         inkscape:connector-curvature="0"
         id="path4179"
         d="m 320.21836,22.511684 20.45559,-0.757615 26.76904,5.808377 69.01688,-7.01242 -74.82526,4.992115 -21.92749,-6.418058 z"
         style="fill:#dcd7a9;fill-opacity:1;fill-rule:evenodd;stroke:none;stroke-width:1px;stroke-linecap:butt;stroke-linejoin:miter;stroke-opacity:1" />
    </g>
    <g
       id="g4228"
       transform="translate(-14.142136,12.121831)"
       inkscape:export-xdpi="124.08811"
       inkscape:export-ydpi="124.08811">
      <path
         style="fill:#916f6f;fill-opacity:1;fill-rule:evenodd;stroke:#000000;stroke-width:1px;stroke-linecap:butt;stroke-linejoin:miter;stroke-opacity:0.19607843"
         d="m 329.30973,198.7833 -11.11168,-48.48732 1.01015,-20.20305 23.23351,-23.23351 130.30968,-35.355337 54.54824,-6.060915 67.68022,11.111678 47.47717,29.294424 29.29442,38.3858 8.08122,48.48732 -9.09137,46.46702 -63.63961,49.49747 -131.31983,10.10153 -74.75129,-19.1929 -44.44671,-30.30458 z"
         id="path4199"
         inkscape:connector-curvature="0" />
      <path
         style="fill:#726072;fill-opacity:1;fill-rule:evenodd;stroke:none;stroke-width:1px;stroke-linecap:butt;stroke-linejoin:miter;stroke-opacity:1"
         d="m 318.70313,150.80106 20.20305,41.41625 37.88072,35.86042 -21.2132,-5.05077 15.65736,21.21321 33.84011,17.67767 72.73098,-16.16244 15.65737,12.6269 0.50507,18.18275 71.72084,-4.54569 1.51522,-10.6066 15.65737,-8.5863 20.20305,-25.75889 -0.50508,21.21321 -6.56599,13.13198 14.14214,2.52538 34.85026,-22.72843 19.1929,-26.26397 -2.52538,-34.34518 11.61675,7.07107 -3.03046,-44.95179 10.10153,49.49747 -10.6066,48.9924 -62.62946,47.98225 -131.31983,9.59645 -75.25637,-19.1929 -43.94163,-30.30458 -27.27412,-51.0127 z"
         id="path4201"
         inkscape:connector-curvature="0" />
      <path
         style="fill:#726072;fill-opacity:1;fill-rule:evenodd;stroke:none;stroke-width:1px;stroke-linecap:butt;stroke-linejoin:miter;stroke-opacity:1"
         d="m 530.83516,237.67418 28.28427,10.6066 23.23351,0.50507 30.80965,-11.11167 18.18275,-32.82996 8.08122,-26.26397 -1.51523,-26.76904 -8.08122,-14.14214 -4.04061,12.62691 -4.54568,23.23351 -13.13198,18.68782 -16.16245,17.67767 15.65737,-2.0203 -15.15229,13.13198 -30.30458,9.09137 -47.98224,-4.54568 z"
         id="path4203"
         inkscape:connector-curvature="0"
         sodipodi:nodetypes="ccccccccccccccccc" />
      <path
         style="fill:#726072;fill-opacity:1;fill-rule:evenodd;stroke:none;stroke-width:1px;stroke-linecap:butt;stroke-linejoin:miter;stroke-opacity:1"
         d="m 417.14162,223.31103 31.852,8.19044 27.39356,1.9823 24.33197,-2.68131 24.68742,-6.30607 17.52542,-12.21627 8.19562,-14.6794 -17.70314,14.02866 -35.2664,-0.64295 -13.33746,8.26352 -31.82194,-7.06145 -23.00303,-23.79103 -5.56257,-22.22168 -5.81484,27.72153 8.44383,20.11137 -23.23304,1.52226 z"
         id="path4205"
         inkscape:connector-curvature="0"
         sodipodi:nodetypes="ccccccccccccccccc" />
      <path
         style="fill:#af9d8e;fill-opacity:1;fill-rule:evenodd;stroke:none;stroke-width:1px;stroke-linecap:butt;stroke-linejoin:miter;stroke-opacity:1"
         d="m 319.08193,130.34547 27.90547,-14.89975 42.42641,-9.09137 51.0127,0 42.93148,12.12183 -32.82995,-17.1726 -19.69798,-6.565989 44.44671,-13.131983 24.74874,-0.505076 34.85026,5.555839 7.57615,-3.535534 -2.52538,-8.08122 49.49747,7.576144 38.89087,21.718279 14.64721,1.51523 -47.44653,-29.146491 -68.21593,-11.111678 -55.05331,5.912982 -130.05714,35.481607 z"
         id="path4207"
         inkscape:connector-curvature="0"
         sodipodi:nodetypes="cccccccccccccccccccc" />
      <path
         style="fill:#dcd7a9;fill-opacity:1;fill-rule:evenodd;stroke:none;stroke-width:1px;stroke-linecap:butt;stroke-linejoin:miter;stroke-opacity:1"
         d="M 319.64286,129.68363 344.46429,108.79077 473.57143,73.076488 527.5,65.75506 472.14286,71.469346 342.67857,106.82649 Z"
         id="path4209"
         inkscape:connector-curvature="0" />
      <path
         style="fill:#af9d8e;fill-opacity:1;fill-rule:evenodd;stroke:none;stroke-width:1px;stroke-linecap:butt;stroke-linejoin:miter;stroke-opacity:1"
         d="m 522.75394,116.45587 24.24366,-12.12183 22.72844,-3.03046 28.28427,5.05077 -27.27412,0.50507 -22.72843,3.53554 z"
         id="path4211"
         inkscape:connector-curvature="0" />
    </g>
    <g
       id="g4249"
       inkscape:export-xdpi="117.22766"
       inkscape:export-ydpi="117.22766">
      <path
         inkscape:connector-curvature="0"
         id="path4237"
         d="m 73.741136,265.45337 -42.426407,27.27412 -12.121831,37.37564 4.040611,49.49748 23.233508,48.48732 69.700523,21.21321 92.93404,-20.20306 31.31473,-33.33503 8.08122,-69.70053 -13.13199,-37.37564 -55.55839,-24.24366 z"
         style="fill:#916f6f;fill-rule:evenodd;stroke:#000000;stroke-width:1px;stroke-linecap:butt;stroke-linejoin:miter;stroke-opacity:0.19607843;fill-opacity:1" />
      <path
         inkscape:connector-curvature="0"
         id="path4239"
         d="m 19.642857,331.64792 13.928572,45.35714 23.214285,36.42857 52.142856,15.35715 13.92857,-3.57143 18.92857,2.14285 15,-10.35714 -5.35714,-20 34.64286,13.92857 25.35714,-8.21428 13.92857,-15.35715 -7.85714,-26.42857 14.28571,-9.28571 8.57143,-22.85714 L 240,303.43363 l 7.5,22.5 -7.5,69.64286 -31.07143,33.57143 -93.21428,20 L 46.071429,428.43363 23.214286,379.8622 Z"
         style="fill:#726072;fill-rule:evenodd;stroke:none;stroke-width:1px;stroke-linecap:butt;stroke-linejoin:miter;stroke-opacity:1;fill-opacity:1" />
      <path
         sodipodi:nodetypes="cccccccccccccc"
         inkscape:connector-curvature="0"
         id="path4241"
         d="m 25.253814,312.93054 12.626906,-16.16244 39.901026,-17.67767 26.769044,1.01015 7.57614,-7.07106 61.11423,-1.51523 8.5863,-1.01016 14.14213,13.63706 38.3858,4.04061 -54.04316,-23.73858 -59.09392,-1.51523 -47.446536,2.4641 -43.467198,27.3354 z"
         style="fill:#af9d8e;fill-opacity:1;fill-rule:evenodd;stroke:none;stroke-width:1px;stroke-linecap:butt;stroke-linejoin:miter;stroke-opacity:1" />
      <path
         inkscape:connector-curvature="0"
         id="path4243"
         d="m 30.052038,293.23257 44.446712,-25.25382 48.23478,-2.52538 57.07362,-0.75761 -59.09392,-2.02031 -47.729709,3.03046 z"
         style="fill:#dcd7a9;fill-rule:evenodd;stroke:none;stroke-width:1px;stroke-linecap:butt;stroke-linejoin:miter;stroke-opacity:1;fill-opacity:1" />
      <path
         sodipodi:nodetypes="cccccccccc"
         inkscape:connector-curvature="0"
         id="path4245"
         d="m 134.85537,400.81381 18.68782,-0.50507 30.80965,-15.65737 18.68782,-22.22335 1.01015,-29.7995 -10.6066,24.24366 -15.15229,18.18275 -33.33503,16.16243 -31.8198,2.02031 z"
         style="fill:#726072;fill-opacity:1;fill-rule:evenodd;stroke:none;stroke-width:1px;stroke-linecap:butt;stroke-linejoin:miter;stroke-opacity:1" />
      <path
         inkscape:connector-curvature="0"
         id="path4247"
         d="m 85.35789,294.7478 -22.223356,5.05076 -11.111678,5.05076 -15.657364,17.17259 17.172593,-13.63706 19.192898,-5.05076 28.789347,-3.03046 z"
         style="fill:#af9d8e;fill-rule:evenodd;stroke:none;stroke-width:1px;stroke-linecap:butt;stroke-linejoin:miter;stroke-opacity:1;fill-opacity:1" />
    </g>
    <path
       style="fill:#916f6f;fill-rule:evenodd;stroke:none;stroke-width:1px;stroke-linecap:butt;stroke-linejoin:miter;stroke-opacity:1;fill-opacity:1"
       d="m 264.64286,265.21935 -4.28572,3.57142 -1.78571,5.71429 8.92857,8.92857 10,0.71429 5.71429,-8.57143 -4.64286,-9.28572 z"
       id="path4257"
       inkscape:connector-curvature="0"
       inkscape:export-xdpi="146.08698"
       inkscape:export-ydpi="146.08698" />
    <path
       style="fill:#af9d8e;fill-opacity:1;fill-rule:evenodd;stroke:none;stroke-width:1px;stroke-linecap:butt;stroke-linejoin:miter;stroke-opacity:1"
       d="M 259.10714,274.32649 265,270.39792 l 13.75,-4.10715 -13.92857,-1.07142 -4.46429,3.39285 z"
       id="path4259"
       inkscape:connector-curvature="0"
       sodipodi:nodetypes="cccccc"
       inkscape:export-xdpi="146.08698"
       inkscape:export-ydpi="146.08698" />
    <path
       style="fill:#726072;fill-rule:evenodd;stroke:none;stroke-width:1px;stroke-linecap:butt;stroke-linejoin:miter;stroke-opacity:1;fill-opacity:1"
       d="m 262.67857,278.43363 4.64286,5.17857 10,0.71429 5.89286,-8.75 -3.57143,-7.14286 0.35714,6.42857 -4.82143,4.28572 z"
       id="path4261"
       inkscape:connector-curvature="0"
       inkscape:export-xdpi="146.08698"
       inkscape:export-ydpi="146.08698" />
    <g
       id="g4279"
       transform="translate(-3.6055203e-8,-39.395949)"
       inkscape:export-xdpi="149.79022"
       inkscape:export-ydpi="149.79022">
      <path
         sodipodi:nodetypes="cccccccccccccccccccccccccccccccccccccccccccccc"
         inkscape:connector-curvature="0"
         id="path4263"
         d="M 44.285714,529.50506 57.142857,645.21935 62.857143,742.3622 60,809.50506 l -18.571429,31.42857 -18.571428,10 L 14.285714,872.3622 20,898.07649 l 8.571429,14.28571 4.285714,-8.57142 -5.714286,-12.85715 1.428572,-20 38.571428,-24.28571 11.428572,-24.28572 4.285714,22.85715 -10,22.85714 0,18.57143 L 80,910.93363 l 0,18.57143 7.142857,0 1.428572,-18.57143 -1.428572,-25.71428 7.142857,-17.14286 17.142856,-28.57143 7.14286,-15.71428 17.14286,0 7.14285,8.57142 11.42857,10 7.14286,14.28572 9.28572,9.28571 16.42857,5 18.57143,2.85715 -0.35715,-6.42857 L 190,862.71935 l -14.64286,-7.14286 -4.28571,-17.85714 -9.64286,-22.5 -8.57143,-10 -15.71428,-2.85715 -2.85715,-17.14285 -17.14285,-78.57143 -12.85715,-67.14286 0,-101.42857 -2.85714,-12.85714 -29.999999,-4.28572 z"
         style="fill:#a06742;fill-opacity:1;fill-rule:evenodd;stroke:none;stroke-width:1px;stroke-linecap:butt;stroke-linejoin:miter;stroke-opacity:1" />
      <path
         sodipodi:nodetypes="cccccccccccc"
         inkscape:connector-curvature="0"
         id="path4265"
         d="m 86.999388,929.24986 -2.65165,-16.79378 -2.525382,-26.26397 8.586297,-27.77919 9.310177,-21.9028 10.53573,-4.89163 8.56464,-8.1821 -6.973,15.76917 -13.861403,23.24797 -11.111678,23.2335 2.525381,21.71828 z"
         style="fill:#82573c;fill-opacity:1;fill-rule:evenodd;stroke:none;stroke-width:1px;stroke-linecap:butt;stroke-linejoin:miter;stroke-opacity:1" />
      <path
         inkscape:connector-curvature="0"
         id="path4267"
         d="m 135.71429,801.64792 -10,-15 -17.85715,-87.85714 -4.28571,5 6.42857,69.28571 -13.571428,-83.57143 -5.714286,-90.71428 11.428574,80 4.28571,-12.85715 L 100,641.64792 l -5,-81.42857 5.71429,16.42857 -1.428576,-36.42857 0,-13.57143 4.999996,10 0,102.14286 z"
         style="fill:#82573c;fill-opacity:1;fill-rule:evenodd;stroke:none;stroke-width:1px;stroke-linecap:butt;stroke-linejoin:miter;stroke-opacity:1" />
      <path
         sodipodi:nodetypes="cccccccccccc"
         inkscape:connector-curvature="0"
         id="path4269"
         d="m 153.03811,805.88498 7.82868,8.83884 10.10153,22.47589 4.04061,18.18275 16.93322,8.38765 -19.69844,-5.61496 -4.30585,-19.94529 -9.09138,-12.37437 -6.31345,-7.3236 -24.49619,-6.81853 27.27411,2.77792 z"
         style="fill:#82573c;fill-opacity:1;fill-rule:evenodd;stroke:none;stroke-width:1px;stroke-linecap:butt;stroke-linejoin:miter;stroke-opacity:1" />
      <path
         inkscape:connector-curvature="0"
         id="path4271"
         d="m 78.791899,822.29996 -5.050763,-9.84899 -12.626907,29.29443 -35.355339,25.50635 -1.767767,21.71828 8.586297,15.40483 -5.555839,-13.63706 1.767767,-19.95052 38.638334,-24.49619 z"
         style="fill:#82573c;fill-opacity:1;fill-rule:evenodd;stroke:none;stroke-width:1px;stroke-linecap:butt;stroke-linejoin:miter;stroke-opacity:1" />
      <path
         inkscape:connector-curvature="0"
         id="path4273"
         d="m 116.16754,801.84437 -10.10152,-10.6066 -12.121833,-79.80205 5.555839,77.27667 3.535534,16.66752 -8.081221,20.70812 15.152291,-18.18274 17.17259,-1.51523 z"
         style="fill:#82573c;fill-opacity:1;fill-rule:evenodd;stroke:none;stroke-width:1px;stroke-linecap:butt;stroke-linejoin:miter;stroke-opacity:1" />
      <path
         inkscape:connector-curvature="0"
         id="path4275"
         d="m 84.347738,524.05242 2.020305,93.43911 -12.626907,-69.70052 7.071068,12.6269 -2.020305,-37.37564 -7.576145,11.61675 2.525382,-13.13198 z"
         style="fill:#82573c;fill-opacity:1;fill-rule:evenodd;stroke:none;stroke-width:1px;stroke-linecap:butt;stroke-linejoin:miter;stroke-opacity:1" />
      <path
         inkscape:connector-curvature="0"
         id="path4277"
         d="m 61.619305,809.92559 9.596449,-49.49747 3.535534,30.30458 11.616755,15.65736 -7.071068,-18.18275 -1.515229,-30.80965 6.565992,-48.9924 -15.657365,38.3858 -2.020305,-58.08377 -5.555839,-49.49748 6.565992,11.11168 7.071067,35.86042 -4.545686,-59.09393 -9.596449,-60.10407 3.535534,52.52793 -6.060916,-12.12183 -10.101525,-78.28682 -4.545687,1.51522 14.142136,116.16755 5.555839,96.97464 z"
         style="fill:#cc8051;fill-opacity:1;fill-rule:evenodd;stroke:none;stroke-width:1px;stroke-linecap:butt;stroke-linejoin:miter;stroke-opacity:1" />
    </g>
    <g
       id="g4295"
       inkscape:export-xdpi="149.79022"
       inkscape:export-ydpi="149.79022"
       transform="translate(9.0913729,6.0609153)">
      <path
         sodipodi:nodetypes="ccccccccccccccccccc"
         inkscape:connector-curvature="0"
         id="path4289"
         d="m 215.16249,466.47373 2.02031,20.20305 57.57869,-26.26397 47.47717,-14.14213 51.51778,-4.04061 36.36549,-8.08122 -2.0203,-9.09138 -37.88072,10.10153 -43.94164,1.01015 -33.33503,4.04061 23.23351,-13.13198 32.82996,-9.59645 -0.50508,-5.55584 -33.33504,8.08122 -31.31472,16.16244 -28.28428,17.1726 -34.34518,5.05076 -8.08122,1.01015 z"
         style="fill:#a06742;fill-opacity:1;fill-rule:evenodd;stroke:none;stroke-width:1px;stroke-linecap:butt;stroke-linejoin:miter;stroke-opacity:1" />
      <path
         inkscape:connector-curvature="0"
         id="path4291"
         d="m 217.68787,484.65647 -1.01015,-7.57614 54.04316,-19.69797 49.49748,-14.64722 55.05331,-4.54568 34.34519,-8.08122 0,3.53553 -35.86042,8.5863 -51.51778,4.04061 -47.98224,14.14213 z"
         style="fill:#82573c;fill-opacity:1;fill-rule:evenodd;stroke:none;stroke-width:1px;stroke-linecap:butt;stroke-linejoin:miter;stroke-opacity:1" />
      <path
         inkscape:connector-curvature="0"
         id="path4293"
         d="m 214.65742,463.44327 c 2.52538,0 42.93148,-7.07107 42.93148,-7.07107 l 37.88072,-22.72843 21.2132,-11.61675 31.31473,-8.08122 0,-1.51523 -32.82996,6.56599 -60.10407,32.82996 -42.42641,7.57614 z"
         style="fill:#cc8051;fill-opacity:1;fill-rule:evenodd;stroke:none;stroke-width:1px;stroke-linecap:butt;stroke-linejoin:miter;stroke-opacity:1" />
    </g>
    <g
       id="g4306"
       inkscape:export-xdpi="149.79022"
       inkscape:export-ydpi="149.79022">
      <path
         inkscape:connector-curvature="0"
         id="path4300"
         d="m 218.19295,508.39506 3.03046,30.30458 23.73858,-17.67767 -3.03046,-15.15229 z"
         style="fill:#a06742;fill-rule:evenodd;stroke:none;stroke-width:1px;stroke-linecap:butt;stroke-linejoin:miter;stroke-opacity:1;fill-opacity:1" />
      <path
         inkscape:connector-curvature="0"
         id="path4302"
         d="m 218.95056,514.70851 23.73859,-4.79822 -0.25254,-4.29315 -23.73858,3.03046 z"
         style="fill:#af6f47;fill-rule:evenodd;stroke:none;stroke-width:1px;stroke-linecap:butt;stroke-linejoin:miter;stroke-opacity:1;fill-opacity:1" />
      <path
         inkscape:connector-curvature="0"
         id="path4304"
         d="m 220.21326,527.58796 1.51522,10.85914 23.23351,-17.42513 -1.01015,-4.54569 z"
         style="fill:#82573c;fill-rule:evenodd;stroke:none;stroke-width:1px;stroke-linecap:butt;stroke-linejoin:miter;stroke-opacity:1;fill-opacity:1" />
    </g>
    <g
       id="g4321"
       transform="translate(52.142857,-10.714286)"
       inkscape:export-xdpi="149.79022"
       inkscape:export-ydpi="149.79022">
      <path
         inkscape:connector-curvature="0"
         id="path4315"
         d="m 610.35715,390.57649 2.14285,40.35715 6.78572,0 -0.35715,-40.71429 z"
         style="fill:#a06742;fill-opacity:1;fill-rule:evenodd;stroke:none;stroke-width:1px;stroke-linecap:butt;stroke-linejoin:miter;stroke-opacity:1"
         sodipodi:nodetypes="ccccc" />
      <path
         inkscape:connector-curvature="0"
         id="path4313"
         d="m 578.92857,350.57649 2.14286,44.28571 3.57143,0.71429 68.57143,-4.64286 -0.71429,-45.35714 -4.28571,0.35714 z"
         style="fill:#82573c;fill-opacity:1;fill-rule:evenodd;stroke:none;stroke-width:1px;stroke-linecap:butt;stroke-linejoin:miter;stroke-opacity:1" />
      <path
         sodipodi:nodetypes="cccccccccccccc"
         inkscape:connector-curvature="0"
         id="path4311"
         d="m 577.30218,348.28588 1.24282,28.27404 6.46172,0.87325 -6.25937,1.94444 0.57514,14.87021 70.71067,-4.54569 -0.50507,-16.66751 -14.64721,1.01015 14.64721,-3.53553 -0.50508,-12.62691 -27.77919,2.52538 27.77919,-5.05076 0,-10.6066 z"
         style="fill:#a06742;fill-opacity:1;fill-rule:evenodd;stroke:none;stroke-width:1px;stroke-linecap:butt;stroke-linejoin:miter;stroke-opacity:1" />
      <path
         inkscape:connector-curvature="0"
         id="path4319"
         d="m 602.14286,366.64792 c -1.54762,0 -3.09524,0 -4.64286,0 -0.11905,0 -0.23809,0 -0.35714,0 -0.11905,0 -0.27297,-0.0842 -0.35714,0 -0.0842,0.0842 0.0842,0.27296 0,0.35714 -0.0842,0.0842 -0.2381,0 -0.35715,0 -0.23809,0 -0.50132,-0.10648 -0.71428,0 -0.95238,0.47619 1.07143,0.35714 -0.35715,0.35714 -0.35714,0 -0.75199,-0.15972 -1.07142,0 -0.10648,0.0532 0.0842,0.27297 0,0.35715 -0.17858,0.17857 -0.89286,-0.17857 -1.07143,0 -0.0842,0.0842 0.0842,0.27296 0,0.35714 -0.0842,0.0842 -0.2381,0 -0.35715,0 -0.11904,0 -0.23809,0 -0.35714,0 -0.95238,0 0.11905,-0.11905 -0.35714,0.35714 -0.0859,0.0859 -1.34263,-0.0859 -1.42857,0 -0.0842,0.0842 0.0532,0.25067 0,0.35715 -0.0753,0.15058 -0.28185,0.20655 -0.35715,0.35714 -0.0532,0.10648 0.0842,0.27296 0,0.35714 -0.0842,0.0842 -0.27296,-0.0842 -0.35714,0 -0.0842,0.0842 0.0842,0.27296 0,0.35714 -0.0842,0.0842 -0.27296,-0.0842 -0.35714,0 -0.0842,0.0842 0.0842,0.27297 0,0.35715 -0.0842,0.0842 -0.27297,-0.0842 -0.35714,0 -0.0115,0.0115 0,0.98481 0,1.07143 0,0.13115 -0.0144,1.41419 0,1.42857 0.073,0.073 0.92982,-0.0708 1.07142,0 0.15059,0.0753 0.19743,0.3039 0.35715,0.35714 0.33881,0.11294 0.71428,0 1.07143,0 0.71428,0 1.42857,0 2.14285,0 0.71429,0 1.42857,0 2.14286,0 0.35714,0 0.73261,0.11294 1.07143,0 0.15972,-0.0532 0.20656,-0.28185 0.35714,-0.35714 0.10648,-0.0532 0.2381,0 0.35714,0 0.2381,0 0.47619,0 0.71429,0 0.48397,0 2.26369,0.0788 2.5,0 0.15972,-0.0532 0.23809,-0.2381 0.35714,-0.35715 0.35715,-0.11904 0.70228,-0.28331 1.07143,-0.35714 0.22421,-0.0448 1.60892,0.0884 1.78572,0 0.15058,-0.0753 0.20655,-0.28185 0.35714,-0.35714 0.22447,-0.11224 1.2041,0.11223 1.42857,0 0.15058,-0.0753 0.20656,-0.28185 0.35714,-0.35714 0.10648,-0.0532 0.24421,0.0376 0.35715,0 0.25253,-0.0842 0.45603,-0.29259 0.71428,-0.35715 0.25023,-0.0625 2.01354,0 2.14286,0 0.11905,0 0.2442,0.0376 0.35714,0 0.25254,-0.0842 0.45604,-0.29258 0.71429,-0.35714 0.34648,-0.0866 0.71428,0 1.07143,0 1.54761,0 3.09523,0 4.64285,0 0.47619,0 0.95238,0 1.42857,0 0.11905,0 0.2381,0 0.35715,0 0.11904,0 0.25066,0.0532 0.35714,0 0.15058,-0.0753 0.20656,-0.28185 0.35714,-0.35714 0.21296,-0.10648 0.50133,0.10648 0.71429,0 0.15058,-0.0753 0.20656,-0.28185 0.35714,-0.35715 0.24669,-0.12334 1.66035,0.12537 1.78572,0 0.0842,-0.0842 -0.0842,-0.27296 0,-0.35714 0.0842,-0.0842 0.23809,0 0.35714,0 0.11905,0 0.23809,0 0.35714,0 0.11905,0 0.35714,-0.11905 0.35714,0 0,0.11905 -0.27296,-0.0842 -0.35714,0 -0.0842,0.0842 0.0376,0.24421 0,0.35714 -0.0842,0.25254 -0.23809,0.47619 -0.35714,0.71429 -0.11905,0.23809 -0.16891,0.52605 -0.35714,0.71429 -0.18824,0.18823 -0.52606,0.16891 -0.71429,0.35714 -0.24262,0.24261 0.36517,0.71027 -0.35714,1.07143 -0.21296,0.10648 -0.50133,-0.10648 -0.71429,0 -0.15058,0.0753 -0.23809,0.23809 -0.35714,0.35714 -0.2381,0.23809 -0.51226,0.44491 -0.71429,0.71429 -0.15972,0.21295 -0.16891,0.52605 -0.35714,0.71428 -0.30351,0.30351 -0.76792,0.41077 -1.07143,0.71429 -0.0842,0.0842 0.0842,0.27296 0,0.35714 -0.0842,0.0842 -0.27296,-0.0842 -0.35714,0 -0.0842,0.0842 0.0842,0.27296 0,0.35714 -0.18823,0.18823 -0.4928,0.20948 -0.71429,0.35715 -0.14008,0.0934 -0.20656,0.28185 -0.35714,0.35714 -0.10648,0.0532 -0.25066,-0.0532 -0.35714,0 -0.15059,0.0753 -0.20656,0.28185 -0.35715,0.35714 -0.10648,0.0532 -0.27296,-0.0842 -0.35714,0 -0.16836,0.16836 0.16836,0.54593 0,0.71429 -0.0842,0.0842 -0.27296,-0.0842 -0.35714,0 -0.16836,0.16836 0.16836,0.54592 0,0.71428 -0.0842,0.0842 -0.27297,-0.0842 -0.35714,0 -0.16836,0.16836 0.16835,0.54593 0,0.71429 -0.0842,0.0842 -0.27297,-0.0842 -0.35715,0 -0.0842,0.0842 0.0842,0.27296 0,0.35714 -0.0842,0.0842 -0.27296,-0.0842 -0.35714,0 -0.0842,0.0842 0.0532,0.25066 0,0.35714 -0.0753,0.15059 -0.28185,0.20656 -0.35714,0.35715 -0.0532,0.10648 0.0842,0.27296 0,0.35714 -0.23807,0.23807 -0.47622,-0.23807 -0.71429,0 -0.0842,0.0842 0,0.23809 0,0.35714 0,0.11905 0,0.2381 0,0.35715 0,0.0866 -0.0115,1.05994 0,1.07142 0.0842,0.0842 0.27296,-0.0842 0.35714,0 0.0842,0.0842 -0.0842,0.27297 0,0.35715 0.16836,0.16836 0.54593,-0.16836 0.71429,0 0.0842,0.0842 -0.0842,0.27296 0,0.35714 0.0842,0.0842 0.25066,-0.0532 0.35714,0 0.15059,0.0753 0.19743,0.3039 0.35715,0.35714 0.23631,0.0788 2.01602,0 2.5,0 0.29232,0 2.03835,0.0523 2.14285,0 0.10648,-0.0532 -0.0532,-0.25066 0,-0.35714 0.0753,-0.15059 0.26376,-0.21706 0.35715,-0.35714 0.14766,-0.22149 0.20948,-0.4928 0.35714,-0.71429 0.3951,-0.59265 1.27754,-1.04744 1.78571,-1.42857 1.09399,-0.82049 -0.58558,0.22844 0.71429,-1.07143 0.65818,-0.65819 1.08115,-0.64869 1.78571,-1.07143 0.72901,-0.0535 1.25631,-1.07563 1.78572,-1.42857 0.1981,-0.13207 0.54592,0.16836 0.71428,0 0.0842,-0.0842 -0.0532,-0.25066 0,-0.35714 0.0753,-0.15059 0.28185,-0.20656 0.35715,-0.35714 0.10647,-0.21296 -0.16836,-0.54593 0,-0.71429 0.0842,-0.0842 0.27296,0.0842 0.35714,0 0.0842,-0.0842 -0.0532,-0.25066 0,-0.35714 0.0753,-0.15059 0.28185,-0.20656 0.35714,-0.35715 0.0708,-0.1416 -0.073,-0.99841 0,-1.07142 0.0842,-0.0842 0.27296,0.0842 0.35714,0 0.16836,-0.16836 -0.16835,-0.54593 0,-0.71429 0.0842,-0.0842 0.27297,0.0842 0.35715,0 0,-0.95238 -0.11905,0.11905 0.35714,-0.35714 0.73894,-0.73894 -1.1292,0.0289 0.35714,-0.71429 0.10648,-0.0532 0.27297,0.0842 0.35715,0 0.16835,-0.16836 -0.16836,-0.54593 0,-0.71428 0.16835,-0.16836 0.50132,0.10647 0.71428,0 0.18448,-0.0922 1.66457,-1.66457 1.78572,-1.78572 0.23809,-0.23809 0.47619,-0.47619 0.71428,-0.71428 0.11905,-0.11905 0.20656,-0.28186 0.35714,-0.35715 0.10648,-0.0532 0.27297,0.0842 0.35715,0 0.0842,-0.0842 -0.0842,-0.27296 0,-0.35714 0.0842,-0.0842 0.23809,0 0.35714,0 0.23809,-0.2381 0.52751,-0.43412 0.71429,-0.71429 0.066,-0.099 -0.0842,-0.27296 0,-0.35714 0.16835,-0.16836 0.54592,0.16836 0.71428,0 0.0842,-0.0842 -0.0842,-0.27296 0,-0.35714 0.0842,-0.0842 0.27296,0.0842 0.35714,0 0.0842,-0.0842 -0.0842,-0.27297 0,-0.35714 0.0842,-0.0842 0.27297,0.0842 0.35715,0 0.0842,-0.0842 -0.0842,-0.27297 0,-0.35715 0.0842,-0.0842 0.27296,0.0842 0.35714,0 0.0842,-0.0842 -0.0842,-0.27296 0,-0.35714 0.0842,-0.0842 0.27296,0.0842 0.35714,0 0.0842,-0.0842 -0.0842,-0.27296 0,-0.35714 0.0842,-0.0842 0.25067,0.0532 0.35715,0 0.15058,-0.0753 0.20655,-0.28185 0.35714,-0.35715 0.10648,-0.0532 0.27296,0.0842 0.35714,0 0.0842,-0.0842 0,-0.23809 0,-0.35714 0,-0.11905 0,-0.23809 0,-0.35714 0,-0.11905 0.0842,-0.27297 0,-0.35714 -0.0842,-0.0842 -0.25066,0.0532 -0.35714,0 -0.15059,-0.0753 -0.20656,-0.28186 -0.35714,-0.35715 -0.10648,-0.0532 -0.25067,0.0532 -0.35715,0 -0.42857,-0.21428 -0.64285,-0.85714 -1.07143,-1.07143 -0.21295,-0.10648 -0.47619,0 -0.71428,0 -0.11905,0 -0.27297,0.0842 -0.35714,0 -0.0842,-0.0842 0.10647,-0.3039 0,-0.35714 -1.62582,0 -0.0204,0.16836 -1.07143,-0.35714 -0.10648,-0.0532 -0.27297,0.0842 -0.35715,0 -0.0842,-0.0842 0.0532,-0.25067 0,-0.35714 -0.20471,-0.40944 -0.74518,-0.49679 -1.07142,-0.71429 -1.07143,-0.71429 0.71428,0 -1.07143,-1.07143 -0.32282,-0.19369 -0.77026,-0.13127 -1.07143,-0.35714 -0.21296,-0.15972 -0.13565,-0.56663 -0.35714,-0.71429 -0.19811,-0.13207 -0.48841,0.0753 -0.71429,0 -0.15972,-0.0532 -0.20656,-0.28185 -0.35714,-0.35714 -0.10648,-0.0532 -0.27297,0.0842 -0.35715,0 -0.0842,-0.0842 0,-0.2381 0,-0.35714 -0.11904,-0.11905 -0.21706,-0.26376 -0.35714,-0.35715 -0.93618,-0.62412 -0.62412,-0.13349 -1.78571,-0.71428 -1.63451,-0.81725 1.5155,0.14802 -1.07143,-0.71429 -0.11294,-0.0376 -0.27297,0.0842 -0.35714,0 -0.0842,-0.0842 0.0842,-0.27296 0,-0.35714 -0.16836,-0.16836 -0.54593,0.16836 -0.71429,0 -0.0842,-0.0842 0.0842,-0.27296 0,-0.35714 -0.0842,-0.0842 -0.25066,0.0532 -0.35714,0 -0.15059,-0.0753 -0.20656,-0.28185 -0.35715,-0.35715 -0.10648,-0.0532 -0.27296,0.0842 -0.35714,0 -0.0842,-0.0842 0.0842,-0.27296 0,-0.35714 -0.16836,-0.16836 -0.54593,0.16836 -0.71428,0 -0.0842,-0.0842 0.0842,-0.27296 0,-0.35714 -0.0842,-0.0842 -0.25067,0.0532 -0.35715,0 -0.15058,-0.0753 -0.20656,-0.28185 -0.35714,-0.35714 -0.10648,-0.0532 -0.27296,0.0842 -0.35714,0 -0.0842,-0.0842 0.0842,-0.27297 0,-0.35715 -0.17857,-0.17857 -0.89286,0.17857 -1.07143,0 -0.0842,-0.0842 0.0842,-0.27296 0,-0.35714 -0.0842,-0.0842 -0.27297,0.0842 -0.35714,0 -0.0842,-0.0842 0.0842,-0.27296 0,-0.35714 -0.16836,-0.16836 -0.54593,0.16836 -0.71429,0 -0.0842,-0.0842 0.0842,-0.27297 0,-0.35715 -0.11579,-0.11578 -1.55904,0.11334 -1.78571,0 -0.15059,-0.0753 -0.20656,-0.28185 -0.35715,-0.35714 -0.10648,-0.0532 -0.23809,0 -0.35714,0 -0.35714,0 -0.71429,0 -1.07143,0 -0.24841,0 -1.65656,-0.0646 -1.78571,0 -0.15059,0.0753 -0.26376,0.21706 -0.35715,0.35714 -0.14766,0.22149 -0.20948,0.4928 -0.35714,0.71429 -0.0934,0.14008 -0.28185,0.20656 -0.35714,0.35714 -0.0532,0.10648 0.0532,0.25067 0,0.35715 -0.0753,0.15058 -0.28185,0.20655 -0.35714,0.35714 -0.0152,0.0304 -0.0152,1.39812 0,1.42857 0.0753,0.15058 0.23809,0.23809 0.35714,0.35714 0.11905,0.11905 0.20656,0.28185 0.35714,0.35715 0.10648,0.0532 0.24165,-0.0289 0.35714,0 0.36523,0.0913 0.70621,0.26583 1.07143,0.35714 0.1155,0.0289 0.27297,-0.0842 0.35715,0 0.0842,0.0842 -0.10648,0.3039 0,0.35714 0.23105,0.11553 1.30028,-0.12829 1.42857,0 0.0842,0.0842 -0.0532,0.25066 0,0.35714 0.33545,0.67091 1.31062,0.59634 1.78571,1.07143 0.18823,0.18823 0.16891,0.52606 0.35714,0.71429 0.18823,0.18823 0.4928,0.20948 0.71429,0.35714 0.32511,0.21674 0.75488,0.91315 1.07143,1.07143 0.10648,0.0532 0.27296,-0.0842 0.35714,0 0.0842,0.0842 -0.0842,0.27296 0,0.35714 0.0842,0.0842 0.27296,-0.0842 0.35714,0 0.0842,0.0842 -0.0842,0.27297 0,0.35715 0.0842,0.0842 0.27297,-0.0842 0.35715,0 0.0842,0.0842 -0.10648,0.3039 0,0.35714 0.21296,0.10648 0.47619,0 0.71428,0 0.11905,0 0.27297,-0.0842 0.35715,0 0.0842,0.0842 -0.0842,0.27296 0,0.35714 0.0842,0.0842 0.25066,-0.0532 0.35714,0 0.15058,0.0753 0.23809,0.2381 0.35714,0.35714 0.11905,0.11905 0.35714,0.18879 0.35714,0.35715 0,0.23809 -0.50132,-0.10648 -0.71428,0 -0.15059,0.0753 -0.19743,0.3039 -0.35714,0.35714 -0.22588,0.0753 -0.4762,0 -0.71429,0 -0.59524,0 -1.19048,0 -1.78571,0 -0.31488,0 -0.76712,-0.0761 -1.07143,0 -0.36522,0.0913 -0.70228,0.28331 -1.07143,0.35714 -0.23347,0.0467 -0.47619,0 -0.71429,0 -0.11905,0 -0.25066,-0.0532 -0.35714,0 -0.15059,0.0753 -0.20656,0.28185 -0.35714,0.35715 -0.21687,0.10843 -1.926,-0.10844 -2.14286,0 -0.15059,0.0753 -0.19381,0.3163 -0.35714,0.35714 -0.0779,0.0195 -1.62322,-0.0813 -1.78572,0 -0.15058,0.0753 -0.23809,0.23809 -0.35714,0.35714 -0.2381,0 -0.48841,-0.0753 -0.71429,0 -0.15972,0.0532 -0.19742,0.3039 -0.35714,0.35714 -0.22588,0.0753 -0.47619,0 -0.71428,0 -0.35715,0 -0.73262,-0.11293 -1.07143,0 -0.11294,0.0377 0.0842,0.27297 0,0.35715 -0.0977,0.0977 -1.23483,-0.0969 -1.42857,0 -0.15059,0.0753 -0.20656,0.28185 -0.35715,0.35714 -0.22531,0.11265 -1.5604,-0.11266 -1.78571,0 -0.15059,0.0753 -0.20656,0.28185 -0.35714,0.35714 -0.28572,0.14286 -0.78572,-0.14285 -1.07143,0 -0.38392,0.19196 -0.71429,0.47619 -1.07143,0.71429 z"
         style="fill:#972c2c;fill-opacity:0.77906979;fill-rule:evenodd;stroke:none;stroke-width:1px;stroke-linecap:butt;stroke-linejoin:miter;stroke-opacity:1" />
    </g>
    <path
       style="fill:#82573c;fill-rule:evenodd;stroke:none;stroke-width:1px;stroke-linecap:butt;stroke-linejoin:miter;stroke-opacity:1;fill-opacity:1"
       d="m 663.57143,382.89792 7.5,10 -0.17857,-10.53572 z"
       id="path4327"
       inkscape:connector-curvature="0" />
  </g>
</svg>
